<!-- Generator: Adobe Illustrator 22.0.1, SVG Export Plug-In  -->
<svg version="1.1"
   xmlns="http://www.w3.org/2000/svg" xmlns:xlink="http://www.w3.org/1999/xlink" xmlns:a="http://ns.adobe.com/AdobeSVGViewerExtensions/3.0/"
   x="0px" y="0px" width="90px" height="90px" viewBox="0 0 90 90" style="enable-background:new 0 0 90 90;" xml:space="preserve">
<style type="text/css">
  .st0{fill:#FFFFFF;}
</style>
<defs>
</defs>
<g>
  <path class="st0" d="M64.7,25.2c-0.7-0.7-1.8-0.7-2.5,0L38,49.4L27.8,39.1c-0.7-0.7-1.8-0.7-2.5,0l-5.8,5.8c-0.7,0.7-0.7,1.8,0,2.5
    l17.3,17.3c0.3,0.3,0.8,0.5,1.2,0.5c0.5,0,0.9-0.2,1.2-0.5l31.3-31.3c0.3-0.3,0.5-0.8,0.5-1.2c0-0.5-0.2-0.9-0.5-1.2L64.7,25.2z"/>
  <path class="st0" d="M45,0C20.1,0,0,20.1,0,45c0,24.9,20.1,45,45,45c24.9,0,45-20.1,45-45C90,20.1,69.9,0,45,0z M70.5,33.5
    L39.3,64.8c-0.3,0.3-0.8,0.5-1.2,0.5c-0.5,0-0.9-0.2-1.2-0.5L19.5,47.4c-0.7-0.7-0.7-1.8,0-2.5l5.8-5.8c0.7-0.7,1.8-0.7,2.5,0
    L38,49.4l24.2-24.2c0.7-0.7,1.8-0.7,2.5,0l5.8,5.8c0.3,0.3,0.5,0.8,0.5,1.2C71.1,32.7,70.9,33.2,70.5,33.5z"/>
</g>
</svg>
