<!-- Generator: Adobe Illustrator 22.0.1, SVG Export Plug-In  -->
<svg version="1.1"
	 xmlns="http://www.w3.org/2000/svg" xmlns:xlink="http://www.w3.org/1999/xlink" xmlns:a="http://ns.adobe.com/AdobeSVGViewerExtensions/3.0/"
	 x="0px" y="0px" width="34px" height="34px" viewBox="0 0 34 34" style="enable-background:new 0 0 34 34;" xml:space="preserve">
<style type="text/css">
	.st0{fill:#BDBDBD;}
	.st1{fill:none;}
</style>
<defs>
</defs>
<g>
	<path class="st0" d="M21.8,9.3c2.6,0,4.6,2.1,4.6,4.6c0,6.4-7.3,10.6-9.4,11.7c-2.1-1.1-9.4-5.3-9.4-11.7c0-2.6,2.1-4.6,4.6-4.6
		c1.5,0,2.7,1.2,3.3,1.8l1.5,1.7l1.5-1.7C19.1,10.4,20.3,9.3,21.8,9.3 M21.8,7.3c-2.2,0-3.9,1.5-4.8,2.5c-0.9-1-2.6-2.5-4.8-2.5
		c-3.7,0-6.6,3-6.6,6.6c0,8.6,10.7,13.6,11.2,13.8l0.3,0.1l0.3-0.1c0.5-0.2,11.2-5.1,11.2-13.8C28.4,10.3,25.5,7.3,21.8,7.3
		L21.8,7.3z"/>
</g>
<rect class="st1" width="34" height="34"/>
</svg>
