<?xml version="1.0" encoding="utf-8"?>
<!-- Generator: Adobe Illustrator 23.0.2, SVG Export Plug-In . SVG Version: 6.00 Build 0)  -->
<svg version="1.1" xmlns="http://www.w3.org/2000/svg" xmlns:xlink="http://www.w3.org/1999/xlink" x="0px" y="0px"
	 viewBox="0 0 300 300" style="enable-background:new 0 0 300 300;" xml:space="preserve">
<style type="text/css">
	.st0{display:none;}
	.st1{display:inline;}
	.st2{fill:#FFFFFF;}
	.st3{display:inline;fill:none;stroke:#606060;stroke-width:25;stroke-linecap:round;stroke-linejoin:round;stroke-miterlimit:10;}
	.st4{display:inline;fill:none;stroke:#606060;stroke-width:18;stroke-linecap:round;stroke-linejoin:round;stroke-miterlimit:10;}
	.st5{fill:#606060;}
	.st6{fill:#00F2FF;}
	.st7{font-family:'CoreSansGRounded-Bold';}
	.st8{font-size:34.9492px;}
</style>
<g id="salida" class="st0">
	<g class="st1">
		<path class="st2" d="M35.12,46.82c1.47-4.25,3.91-7.59,8.54-8.7c1.29-0.31,2.67-0.38,4.01-0.38c45.47-0.02,90.94-0.02,136.41-0.01
			c7.73,0,12.45,4.39,12.51,11.91c0.11,12.3,0.03,24.61,0.03,36.91c0,0.37-0.07,0.73-0.13,1.28c-7.42,0-14.79,0-22.4,0
			c0-0.91,0-1.72,0-2.53c0-6.23,0.04-12.46-0.02-18.68c-0.04-4.04-2.18-6.34-5.98-6.34c-29.11-0.02-58.22-0.02-87.34-0.01
			c-0.34,0-0.68,0.07-1.49,0.15c1.07,0.59,1.68,0.96,2.32,1.28c15.2,7.8,30.36,15.66,45.62,23.36c5.49,2.77,8.03,6.86,8.01,13.07
			c-0.12,30.09-0.05,60.17-0.05,90.26c0,0.97,0,1.94,0,3.18c0.92,0.05,1.71,0.12,2.5,0.12c9.75,0.01,19.51,0.01,29.26,0
			c5.11,0,7.16-2.09,7.16-7.28c0.01-13.36,0-26.71,0-40.07c0-0.89,0-1.79,0-2.83c7.53,0,14.91,0,22.41,0
			c0.04,0.74,0.12,1.39,0.12,2.05c0.01,19.36,0.02,38.72,0,58.07c-0.01,6.2-2.98,10.63-8.17,12.03c-1.57,0.42-3.26,0.53-4.9,0.54
			c-15.16,0.04-30.31,0.02-45.47,0.02c-0.9,0-1.79,0-3.05,0c0,0.97,0,1.83,0,2.69c0,12.98,0.01,25.96,0,38.94
			c0,6.38-3.98,8.79-9.67,5.85c-27.22-14.08-54.42-28.2-81.68-42.2c-4.22-2.17-7.41-4.96-8.56-9.7
			C35.12,155.48,35.12,101.15,35.12,46.82z"/>
		<path class="st2" d="M225.14,126.34c-0.88,0-1.77,0-2.65,0c-19.73,0-39.47-0.03-59.2,0.02c-5.46,0.01-9.67-1.96-11.94-7.1
			c-3.8-8.6,1.93-17.48,11.31-17.51c20.03-0.05,40.07-0.02,60.1-0.02c0.82,0,1.63,0,2.91,0c-0.71-0.8-1.15-1.34-1.63-1.82
			c-4.74-4.71-9.52-9.37-14.22-14.11c-4.32-4.36-5.18-10.48-2.23-15c3.53-5.4,11.09-6.6,16.46-2.58c0.72,0.54,1.4,1.14,2.03,1.78
			c11.84,11.83,23.68,23.65,35.49,35.5c4.52,4.54,5.32,9.82,2.25,14.67c-0.67,1.07-1.54,2.04-2.43,2.93
			c-11.71,11.74-23.42,23.48-35.17,35.18c-4.82,4.8-10.64,5.63-15.44,2.32c-5.58-3.84-6.73-11.65-2.05-17
			c3.94-4.51,8.41-8.56,12.65-12.8c1.31-1.32,2.65-2.61,3.98-3.91C225.27,126.71,225.2,126.53,225.14,126.34z"/>
	</g>
</g>
<g id="puntuacion" class="st0">
	<g class="st1">
		<path class="st2" d="M39.46,83.15c1.16-1.3,2.27-2.66,3.5-3.89c9.88-9.91,19.81-19.78,29.66-29.72c1.66-1.67,3.43-2.45,5.81-2.45
			c46.44,0.04,92.89,0.04,139.33,0c2.28,0,4.03,0.7,5.65,2.32c10.31,10.39,20.68,20.71,31.02,31.06c2.79,2.8,2.96,4.5,0.77,7.83
			c-22.18,33.78-44.35,67.55-66.56,101.3c-1.02,1.54-1.27,2.73-0.51,4.56c11.11,26.62-6.83,56.7-35.48,59.62
			c-27.39,2.79-50.39-19.89-47.69-47.29c0.42-4.29,1.93-8.5,3.23-12.66c0.47-1.51,0.48-2.5-0.39-3.83
			c-22.02-33.45-44-66.94-65.99-100.41c-0.77-1.17-1.56-2.32-2.34-3.48C39.46,85.13,39.46,84.14,39.46,83.15z M199.28,89.42
			c-34.28,0-68.14,0-102.42,0c17.13,26.09,34.08,51.89,51.21,77.98C165.2,141.31,182.14,115.51,199.28,89.42z M55.56,79.9
			c61.79,0,123.21,0,185.01,0c-0.66-0.73-1.1-1.24-1.57-1.71c-6.79-6.8-13.56-13.63-20.43-20.35c-0.79-0.77-2.16-1.35-3.26-1.36
			c-44.81-0.07-89.61-0.07-134.42,0c-1.11,0-2.49,0.55-3.28,1.32c-6.87,6.72-13.64,13.55-20.43,20.35
			C56.7,78.63,56.26,79.15,55.56,79.9z M182.13,210.71c0.02-18.84-15.28-34.18-34.08-34.16c-18.71,0.01-33.96,15.24-34.04,33.99
			c-0.08,18.85,15.17,34.22,33.98,34.25C166.83,244.81,182.11,229.57,182.13,210.71z M52.77,89.41
			c20.67,31.47,41.09,62.57,61.64,93.87c6.21-7.4,13.9-12.25,23.18-14.76c-0.47-0.78-0.77-1.32-1.11-1.85
			c-16.59-25.26-33.2-50.52-49.75-75.81c-0.82-1.25-1.69-1.62-3.09-1.61c-9.47,0.05-18.94,0.02-28.41,0.03
			C54.55,89.28,53.87,89.35,52.77,89.41z M181.72,183.28c20.6-31.37,41.03-62.49,61.6-93.82c-0.67-0.1-0.94-0.18-1.21-0.18
			c-10.11-0.01-20.21-0.04-30.32,0.05c-0.77,0.01-1.79,0.75-2.24,1.44c-16.75,25.41-33.46,50.85-50.16,76.3
			c-0.28,0.43-0.47,0.93-0.76,1.5C167.92,171.02,175.45,175.9,181.72,183.28z"/>
		<path class="st2" d="M145.03,203.04c-1.31-0.06-2.29-0.06-3.27-0.17c-2.4-0.26-4.15-2.22-4.13-4.58c0.02-2.28,1.67-4.32,3.99-4.46
			c2.88-0.17,5.79-0.18,8.68,0.01c2.33,0.15,3.93,1.93,3.96,4.48c0.08,9.89,0.09,19.78,0,29.67c-0.02,2.86-2.11,4.73-4.72,4.68
			c-2.61-0.05-4.48-1.99-4.5-4.87c-0.04-7.42-0.02-14.84-0.02-22.26C145.03,204.79,145.03,204.02,145.03,203.04z"/>
	</g>
</g>
<g id="legal" class="st0">
	<g class="st1">
		<path class="st2" d="M96.58,266.83c-1.72-0.55-3.52-0.94-5.16-1.69c-6.67-3.07-10.5-8.29-11.37-15.61c-0.18-1.5-0.2-3.03-0.2-4.55
			c-0.01-52.54-0.01-105.07-0.01-157.61c0-1.06,0-2.12,0-3.42c-10.34,0-20.56,0-31.15,0c0-1.03,0-1.83,0-2.63c0-8.9,0-17.79,0-26.69
			c0-11.6,4.93-18.09,16.06-21.17c0.13-0.04,0.22-0.19,0.33-0.29c50.05,0,100.09,0,150.14,0c2.05,0.74,4.24,1.23,6.14,2.26
			c7.27,3.93,10.38,10.23,10.37,18.39c-0.04,57.03-0.02,114.06-0.02,171.08c0,0.95,0,1.9,0,3.12c6.71,0,13.04,0,19.45,0
			c0,7.18,0.34,14.11-0.09,20.99c-0.54,8.76-6.5,15.28-15.01,17.35c-0.42,0.1-0.82,0.31-1.22,0.47
			C188.76,266.83,142.67,266.83,96.58,266.83z M223.84,227.87c0.04-0.84,0.09-1.37,0.09-1.9c0-57.64,0.01-115.27-0.01-172.91
			c0-7.43-4.83-12.1-12.42-12.1c-41.82-0.01-83.64-0.01-125.46,0c-0.63,0-1.25,0.09-2.24,0.17c3.74,5.11,3.89,10.68,3.88,16.38
			c-0.05,62.43-0.03,124.86-0.02,187.28c0,1.44-0.22,3,0.25,4.3c0.83,2.3,1.67,4.84,3.28,6.55c3.44,3.65,7.93,4.34,12.59,2.51
			c4.85-1.91,7.13-5.78,7.25-10.86c0.13-5.62,0.03-11.25,0.04-16.88c0-0.8,0.07-1.6,0.11-2.55
			C148.86,227.87,186.25,227.87,223.84,227.87z M118.96,235.81c-0.57,7.95,1.5,16.09-3.99,23.24c1.16,0,1.76,0,2.37,0
			c37.86,0,75.71,0,113.57,0c0.53,0,1.07,0.01,1.6-0.03c5.13-0.34,9.81-3.76,10.42-8.64c0.59-4.75,0.13-9.63,0.13-14.56
			C201.85,235.81,160.52,235.81,118.96,235.81z M79.68,75.91c0.07-0.51,0.16-0.87,0.16-1.24c0-7.45,0.01-14.9-0.03-22.34
			c-0.01-0.98-0.15-1.98-0.4-2.92c-1.52-5.56-6.73-9.04-12.48-8.4c-5.93,0.66-10.23,5.25-10.4,11.36
			c-0.14,4.78-0.04,9.58-0.04,14.36c0,3.02,0,6.04,0,9.18C64.3,75.91,71.87,75.91,79.68,75.91z"/>
		<path class="st2" d="M153.84,115.62c-15.3-9.01-24.84-21.95-26.85-39.77c-0.63-5.63-0.29-11.38-0.29-17.07
			c0-0.5,0.74-1.27,1.29-1.45c8.26-2.78,16.55-5.5,24.85-8.18c0.66-0.21,1.5-0.19,2.16,0.02c8.22,2.66,16.44,5.36,24.63,8.11
			c0.57,0.19,1.39,0.91,1.39,1.39c0.01,9.09,0.69,18.23-2.27,27.1C174.34,99,165.82,108.74,153.84,115.62z M173.31,69.52
			c0-1.44-0.12-2.9,0.03-4.33c0.16-1.57-0.44-2.27-1.92-2.75c-5.34-1.72-10.61-3.64-15.95-5.35c-0.98-0.31-2.24-0.25-3.24,0.07
			c-5.34,1.71-10.63,3.59-15.96,5.33c-1.34,0.44-1.98,1.01-1.88,2.54c0.15,2.27-0.04,4.56,0.08,6.83
			c0.73,13.78,6.46,24.89,17.59,33.21c1.7,1.27,2.76,1.07,4.28-0.14C167.73,95.85,173.33,84.04,173.31,69.52z"/>
		<path class="st2" d="M215.97,196.6c-32.37,0-64.59,0-96.96,0c0-2.5,0-4.89,0-7.49c32.25,0,64.51,0,96.96,0
			C215.97,191.49,215.97,193.94,215.97,196.6z"/>
		<path class="st2" d="M177.16,157.89c0,2.55,0,4.95,0,7.51c-27.18,0-54.27,0-81.53,0c0-2.49,0-4.94,0-7.51
			C122.8,157.89,149.84,157.89,177.16,157.89z"/>
		<path class="st2" d="M138.38,149.84c0-2.56,0-4.96,0-7.49c25.88,0,51.64,0,77.59,0c0,2.4,0,4.86,0,7.49
			C190.22,149.84,164.4,149.84,138.38,149.84z"/>
		<path class="st2" d="M138.4,180.94c0-2.55,0-4.94,0-7.48c25.93,0,51.73,0,77.64,0c0,2.5,0,4.9,0,7.48
			C190.22,180.94,164.43,180.94,138.4,180.94z"/>
		<path class="st2" d="M157.63,204.63c0,2.63,0,5.04,0,7.57c-20.68,0-41.24,0-61.98,0c0-2.54,0-4.99,0-7.57
			C116.33,204.63,136.89,204.63,157.63,204.63z"/>
		<path class="st2" d="M180.98,122.85c0,2.56,0,4.96,0,7.5c-18.07,0-36.03,0-54.16,0c0-2.44,0-4.89,0-7.5
			C144.8,122.85,162.76,122.85,180.98,122.85z"/>
		<path class="st2" d="M165.59,212.14c0-2.59,0-4.94,0-7.46c16.82,0,33.58,0,50.45,0c0,2.47,0,4.88,0,7.46
			C199.28,212.14,182.53,212.14,165.59,212.14z"/>
		<path class="st2" d="M95.67,142.33c11.62,0,23.07,0,34.66,0c0,2.5,0,4.9,0,7.49c-11.46,0-22.96,0-34.66,0
			C95.67,147.42,95.67,144.97,95.67,142.33z"/>
		<path class="st2" d="M95.56,180.93c0-2.53,0-4.87,0-7.4c11.57,0,23.05,0,34.72,0c0,2.41,0,4.85,0,7.4
			C118.7,180.93,107.15,180.93,95.56,180.93z"/>
		<path class="st2" d="M185.16,165.38c0-2.55,0-4.95,0-7.48c10.33,0,20.55,0,30.88,0c0,2.5,0,4.91,0,7.48
			C205.82,165.38,195.6,165.38,185.16,165.38z"/>
		<path class="st2" d="M110.97,188.91c0,2.74,0,5.07,0,7.6c-5.13,0-10.16,0-15.49,0c0-2.14-0.07-4.25,0.05-6.34
			c0.03-0.44,0.74-1.19,1.15-1.2C101.38,188.88,106.07,188.91,110.97,188.91z"/>
		<path class="st2" d="M152.35,95.08c-1.46-2.23-2.82-4.3-4.3-6.55c5.45-4.23,8.7-9.78,9.72-16.76c2.66,0.25,5.11,0.49,7.77,0.74
			C164.44,82.05,159.83,89.23,152.35,95.08z"/>
	</g>
</g>
<g id="spotify" class="st0">
	<g class="st1">
		<path class="st2" d="M277.42,142.07c0,5.31,0,10.62,0,15.93c-0.14,0.64-0.36,1.28-0.41,1.92c-1.48,19.49-6.9,37.85-17.15,54.48
			c-24.69,40.03-60.65,61.44-107.75,62.92c-28.7,0.91-54.83-7.7-77.82-24.91c-27.03-20.23-43.74-47.1-49.77-80.42
			c-0.84-4.63-1.31-9.33-1.95-14c0-5.31,0-10.62,0-15.93c0.38-3.11,0.7-6.24,1.15-9.34c3.98-27.69,15.62-51.68,35.19-71.68
			c19.11-19.53,42.17-31.77,69.14-36.49c4.63-0.81,9.32-1.31,13.99-1.96c5.31,0,10.62,0,15.93,0c0.64,0.14,1.27,0.36,1.92,0.41
			c21.85,1.66,42.02,8.41,60.17,20.65c30.2,20.37,48.81,48.5,55.42,84.41C276.32,132.7,276.78,137.4,277.42,142.07z M134.42,89.11
			c-0.02-0.22-0.04-0.44-0.06-0.65c-12.46,0.98-24.98,1.51-37.37,3.08c-8.91,1.13-17.73,3.32-26.44,5.63
			c-6.82,1.8-10.08,8.75-8.11,15.63c1.79,6.24,7.99,9.65,14.75,8.07c2.18-0.51,4.32-1.17,6.49-1.69
			c31.44-7.45,62.96-6.79,94.48-0.68c16.68,3.23,32.63,8.56,47.45,17.09c6.93,3.99,14.81,0.68,17.21-6.81
			c1.89-5.89-0.29-12.03-6.1-15.02c-7.71-3.97-15.51-7.92-23.61-10.96C187.78,93.26,161.37,89.57,134.42,89.11z M129.75,132.94
			c-17.19-0.09-34.05,2.26-50.62,6.76c-6.59,1.79-9.88,7.19-8.18,13.38c1.63,5.91,7.05,8.56,13.64,6.66
			c9.5-2.74,19.18-4.49,29.04-5.35c25.67-2.23,50.67,0.82,74.75,10.06c7.85,3.01,15.25,7.21,22.88,10.81
			c6.3,2.97,12.89-0.48,14.12-7.34c0.9-5-1.21-9.07-6.38-12.06C191.37,139.9,161.37,133.24,129.75,132.94z M128.6,174.64
			c-14.19,0.08-30.19,2.11-45.99,5.71c-5.03,1.14-7.73,5.47-6.64,10.25c1.1,4.83,5.31,7.24,10.54,5.98
			c13.99-3.37,28.18-5.12,42.57-5.34c19.84-0.3,38.93,3.01,56.9,11.73c4.32,2.1,8.53,4.44,12.92,6.36
			c4.67,2.04,9.38-0.56,10.44-5.54c0.89-4.18-0.93-7.32-4.23-9.6c-2.38-1.64-4.96-3.01-7.53-4.33
			C176.59,179.01,154.11,174.65,128.6,174.64z"/>
	</g>
</g>
<g id="spotyfy_oden" class="st0">
	<path class="st3" d="M-390.13,443.73c0,0,98.21-29.74,167.08,17.22"/>
	<path class="st3" d="M-379.57,486.22c0,0,66.52-22.15,140.09,15.42"/>
	<path class="st4" d="M-373.92,527.75c0,0,66.93-22.68,113.92,12.87"/>
	<g class="st1">
		<path class="st5" d="M-372.9,553.41c1.61,1.11,3.21,2.22,4.82,3.34c0.55,0.39,1.1,0.79,1.7,1.14c-1.85-2.53-4.89-4.38-4.7-8.26
			c1.85,2.19,3.6,4.26,5.35,6.34c0.12-0.1,0.24-0.2,0.35-0.3c-0.52-1.32-1.03-2.64-1.55-3.95c0.09-0.05,0.17-0.1,0.26-0.15
			c0.11,0.05,0.24,0.07,0.32,0.15c6.15,5.89,13.56,9.64,21.41,12.63c1.13,0.43,2.26,0.88,3.42,1.23c0.37,0.11,0.81-0.03,1.23-0.06
			c0.1-0.01,0.22-0.08,0.29-0.04c1.91,1.01,4.09,1.42,5.61,3.25c2,2.42,4.25,4.63,6.39,6.92c0.19,0.21,0.36,0.47,0.59,0.62
			c1.8,1.1,3.36,2.44,4.75,4.03c0.39,0.45,1.28,0.53,1.96,0.62c1.27,0.17,2.57,0.13,3.83,0.34c1.72,0.29,2.96-0.4,4.09-1.56
			c0.51-0.52,1.12-0.96,1.73-1.37c1.11-0.75,2.33-1.37,3.38-2.19c3-2.35,5.92-4.81,8.92-7.16c0.4-0.31,1.09-0.25,1.65-0.35
			c0.1-0.02,0.25,0.07,0.31,0.03c1.47-1.08,3.27-0.11,4.86-0.83c1.54-0.69,3.29-0.91,4.93-1.4c6.93-2.05,13.47-4.88,19.17-9.43
			c0.1-0.08,0.23-0.13,0.41-0.23c0.36,1.48-0.72,2.41-1.03,3.68c1.78-1.57,3.57-3.14,5.51-4.85c0.1,1.84-0.62,3.11-1.69,4.19
			c-1.04,1.05-2.15,2.04-3.12,3.23c2.16-1.23,4.31-2.45,6.47-3.68c0.1,0.11,0.2,0.22,0.3,0.34c-0.17,0.36-0.29,0.75-0.52,1.06
			c-1.83,2.51-4.45,3.83-7.32,4.74c-0.57,0.18-1.14,0.35-1.67,0.68c2.27-0.36,4.54-0.72,6.82-1.08c0.08,0.16,0.16,0.33,0.24,0.49
			c-0.5,0.49-0.93,1.1-1.51,1.45c-2.04,1.25-4.33,1.8-6.67,2.15c-0.32,0.05-0.63,0.12-0.94,0.19c-0.05,0.01-0.08,0.1-0.15,0.19
			c1.65,0.18,3.28,0.32,4.9,0.55c0.49,0.07,1.3,0.31,1.35,0.59c0.08,0.45-0.23,1.09-0.57,1.48c-1.42,1.62-3.29,2.33-5.42,2.34
			c-0.55,0-1.1-0.05-1.71-0.09c0.09,0.17,0.11,0.25,0.15,0.28c1.68,0.94,1.7,1.06,0.42,2.59c-1.74,2.09-4,3.03-6.68,3.02
			c-0.66,0-1.31-0.07-1.96-0.1c-0.03,0.1-0.06,0.2-0.09,0.3c0.59,0.48,1.16,1,1.78,1.44c0.72,0.52,0.84,1,0.08,1.59
			c-1.9,1.49-3.95,2.77-6.34,3.19c-1.22,0.21-2.52-0.09-3.93-0.16c0.47,0.47,0.92,0.91,1.46,1.44c-2.71,2.41-5.8,2.87-9.26,2.27
			c0.69,0.45,1.37,0.92,2.09,1.33c0.83,0.47,0.8,0.99,0.19,1.61c-1.12,1.15-2.46,1.47-3.92,0.87c-1.63-0.67-3.21-1.46-4.92-2.07
			c1.76,1.63,3.51,3.27,5.26,4.89c-0.7,1.2-1.57,1.53-3,0.95c-1.05-0.43-2.02-1.05-3.02-1.59c-0.33-0.18-0.64-0.4-1.07-0.48
			c0.79,0.93,1.58,1.86,2.42,2.85c-1.57,0.83-2.82,0.02-4.06-0.55c-0.89,1.09-0.89,1.09-3.05,0.24c-0.69,0.94-1.41,1.9-2.12,2.88
			c-0.1,0.14-0.22,0.33-0.2,0.48c0.2,2.13-0.57,4.33,0.85,6.39c0.88,1.28,0.47,2.52-0.7,3.88c-0.81-1.17-1.6-2.33-2.39-3.48
			c-0.06,0.03-0.13,0.05-0.19,0.08c0.1,0.26,0.17,0.54,0.29,0.79c0.81,1.63,1.64,3.25,2.44,4.88c0.49,1.01-0.56,2.91-1.67,2.92
			c-0.37,0-0.9-0.36-1.09-0.7c-0.72-1.26-1.36-2.58-1.99-3.89c-0.51-1.08-0.96-2.19-1.57-3.61c-0.47,0.75-0.75,1.18-1.02,1.61
			c-1.08,1.76-2.14,3.53-3.26,5.26c-0.32,0.5-0.67,1.2-1.52,0.67c-0.99-0.62-1.46-1.57-1.04-2.38c0.82-1.58,1.69-3.13,2.54-4.7
			c0.18-0.33,0.32-0.68,0.59-1.24c-1.04,1.11-1.89,2.02-2.81,3.01c-0.98-1.42-1.1-2.65-0.35-3.92c0.27-0.46,0.54-0.92,0.84-1.36
			c0.76-1.12,1.07-2.26,0.13-3.46c1.14-0.95,0.69-1.86,0.07-2.78c-0.46-0.68-0.75-1.65-1.39-1.97c-0.54-0.28-1.45,0.19-2.27,0.34
			c-0.18-0.33-0.38-0.69-0.53-0.97c-1.34,0.17-2.62,0.33-3.9,0.48c-0.05-0.11-0.1-0.22-0.15-0.33c1.21-1.17,2.41-2.34,3.62-3.5
			c-2.73,1.42-5.28,3.6-8.74,1.37c2.11-1.56,4.16-3.06,6.2-4.57c-0.03-0.06-0.05-0.13-0.08-0.19c-0.33,0.13-0.65,0.29-0.98,0.39
			c-1.6,0.46-3.19,0.99-4.82,1.34c-1.38,0.3-2.39-0.46-3.18-1.53c-0.4-0.55-0.33-0.98,0.32-1.28c0.8-0.37,1.59-0.77,2.4-1.3
			c-3.24-0.28-6.66,0.01-8.88-3.18c0.5-0.41,0.99-0.8,1.65-1.34c-4.47,0.93-7.23-1.71-10.08-4.13c-0.57-0.48-0.44-0.98,0.19-1.38
			c0.69-0.43,1.36-0.89,2.01-1.56c-0.32-0.02-0.65-0.05-0.97-0.05c-3.58,0-6.04-1.85-7.82-4.78c-0.48-0.79-0.45-0.81,1-1.72
			c-0.83-0.16-1.58-0.28-2.32-0.45c-1.89-0.44-3.42-1.41-4.43-3.1c-0.66-1.11-0.4-1.56,0.88-1.58c1.25-0.01,2.5-0.01,3.75-0.03
			c0.38-0.01,0.76-0.06,1.28-0.1c-2.09-0.83-4.03-1.56-5.95-2.37c-1.41-0.59-1.94-1.26-2.32-2.72c2.1-0.13,3.92,1,5.93,1.17
			c-2.94-1.53-6-2.91-7.58-6.1C-372.94,554.12-372.92,553.77-372.9,553.41z"/>
	</g>
	<g class="st1">
		<g>
			<path class="st2" d="M137.79,146.73c0,2.19,0,4.37,0,6.56c-0.06,0.26-0.15,0.53-0.17,0.79c-0.61,8.03-2.84,15.59-7.06,22.44
				c-10.17,16.49-24.98,25.3-44.38,25.92c-11.82,0.37-22.58-3.17-32.05-10.26c-11.14-8.33-18.01-19.4-20.5-33.12
				c-0.35-1.91-0.54-3.84-0.8-5.77c0-2.19,0-4.37,0-6.56c0.16-1.28,0.29-2.57,0.47-3.85c1.64-11.41,6.43-21.29,14.49-29.52
				c7.87-8.04,17.37-13.09,28.48-15.03c1.91-0.33,3.84-0.54,5.76-0.81c2.19,0,4.37,0,6.56,0c0.26,0.06,0.52,0.15,0.79,0.17
				c9,0.68,17.31,3.46,24.78,8.51c12.44,8.39,20.1,19.98,22.83,34.77C137.33,142.88,137.52,144.81,137.79,146.73z M78.89,124.92
				c-0.01-0.09-0.02-0.18-0.03-0.27c-5.13,0.4-10.29,0.62-15.39,1.27c-3.67,0.46-7.3,1.37-10.89,2.32c-2.81,0.74-4.15,3.6-3.34,6.44
				c0.74,2.57,3.29,3.98,6.07,3.32c0.9-0.21,1.78-0.48,2.67-0.69c12.95-3.07,25.93-2.8,38.92-0.28c6.87,1.33,13.44,3.53,19.54,7.04
				c2.86,1.64,6.1,0.28,7.09-2.8c0.78-2.43-0.12-4.95-2.51-6.19c-3.18-1.63-6.39-3.26-9.73-4.52
				C100.87,126.63,89.99,125.11,78.89,124.92z M76.96,142.97c-7.08-0.04-14.03,0.93-20.85,2.78c-2.72,0.74-4.07,2.96-3.37,5.51
				c0.67,2.44,2.9,3.53,5.62,2.74c3.91-1.13,7.9-1.85,11.96-2.2c10.57-0.92,20.87,0.34,30.79,4.14c3.23,1.24,6.28,2.97,9.43,4.45
				c2.59,1.22,5.31-0.2,5.82-3.02c0.37-2.06-0.5-3.74-2.63-4.97C102.34,145.84,89.99,143.1,76.96,142.97z M76.49,160.15
				c-5.84,0.03-12.43,0.87-18.94,2.35c-2.07,0.47-3.18,2.25-2.74,4.22c0.45,1.99,2.19,2.98,4.34,2.46
				c5.76-1.39,11.61-2.11,17.54-2.2c8.17-0.12,16.03,1.24,23.44,4.83c1.78,0.86,3.51,1.83,5.32,2.62c1.92,0.84,3.86-0.23,4.3-2.28
				c0.37-1.72-0.38-3.02-1.74-3.95c-0.98-0.67-2.04-1.24-3.1-1.79C96.26,161.95,86.99,160.15,76.49,160.15z"/>
		</g>
		<g>
			<g>
				<path class="st2" d="M161.16,163.2c-2.25,0-4.17-0.79-5.75-2.38c-1.58-1.58-2.38-3.5-2.38-5.75V143.7
					c0-2.23,0.79-4.14,2.38-5.73c1.58-1.58,3.5-2.38,5.75-2.38h9.74c2.23,0,4.15,0.79,5.75,2.38c1.58,1.58,2.38,3.49,2.38,5.73
					v11.37c0,2.25-0.79,4.17-2.38,5.75c-1.6,1.58-3.51,2.38-5.75,2.38H161.16z M161.16,138.84c-1.34,0-2.5,0.47-3.46,1.42
					c-0.95,0.95-1.42,2.09-1.42,3.44v11.37c0,1.34,0.47,2.5,1.42,3.46c0.96,0.95,2.11,1.42,3.46,1.42h9.74
					c1.34,0,2.49-0.47,3.44-1.42c0.96-0.96,1.44-2.11,1.44-3.46V143.7c0-1.34-0.48-2.49-1.44-3.44c-0.95-0.95-2.09-1.42-3.44-1.42
					H161.16z"/>
				<path class="st2" d="M182.42,163.2v-27.6h17.86c2.23,0,4.15,0.79,5.75,2.38c1.58,1.58,2.38,3.49,2.38,5.73v11.37
					c0,2.25-0.79,4.17-2.38,5.75c-1.6,1.58-3.51,2.38-5.75,2.38H182.42z M185.67,159.95h14.62c1.34,0,2.49-0.47,3.44-1.42
					c0.96-0.96,1.44-2.11,1.44-3.46V143.7c0-1.34-0.48-2.49-1.44-3.44c-0.95-0.95-2.09-1.42-3.44-1.42h-14.62V159.95z"/>
				<path class="st2" d="M219.93,138.84c-1.34,0-2.5,0.47-3.46,1.42c-0.95,0.95-1.42,2.09-1.42,3.44v3.27h22.74v3.25h-22.74v9.74
					h22.74v3.25h-25.99v-19.5c0-2.23,0.79-4.14,2.38-5.73c1.58-1.58,3.5-2.38,5.75-2.38h17.86v3.25H219.93z"/>
				<path class="st2" d="M267.18,135.59v27.6h-3.73l-19.01-23.08v23.08h-3.25v-27.6h3.73l19.01,23.08v-23.08H267.18z"/>
			</g>
			<g>
				<g>
					<path class="st2" d="M184.09,168.9h1.11v0.43h-1.11v1.37h-0.47v-3.03h0.47h1.35v0.42h-1.35V168.9z"/>
					<path class="st2" d="M187.43,170.7v-3.03h0.47v3.03H187.43z"/>
					<path class="st2" d="M191.91,168.09h-0.83v2.61h-0.48v-2.61h-0.83v-0.42h2.14V168.09z"/>
					<path class="st2" d="M194.25,168.75v1.95h-0.47v-3.17l1.9,2.09v-1.94h0.48v3.17L194.25,168.75z"/>
					<path class="st2" d="M198.69,168.9h1.11v0.43h-1.11v0.94h1.34v0.43h-1.35h-0.47v-3.03h0.47h1.35v0.42h-1.34V168.9z"/>
				</g>
				<g>
					<path class="st2" d="M211.19,170.47c-0.08,0.05-0.16,0.09-0.24,0.13c-0.19,0.08-0.39,0.12-0.59,0.12s-0.4-0.04-0.59-0.12
						c-0.18-0.08-0.34-0.19-0.48-0.33c-0.14-0.14-0.25-0.3-0.33-0.48c-0.08-0.18-0.12-0.38-0.12-0.59s0.04-0.4,0.12-0.59
						c0.08-0.18,0.19-0.34,0.33-0.48c0.14-0.14,0.3-0.25,0.48-0.32c0.18-0.08,0.38-0.12,0.59-0.12s0.4,0.04,0.59,0.12
						c0.02,0.01,0.04,0.02,0.07,0.03v0.56c-0.18-0.15-0.41-0.23-0.66-0.23c-0.28,0-0.54,0.11-0.74,0.31
						c-0.2,0.2-0.31,0.46-0.31,0.74c0,0.28,0.11,0.54,0.31,0.74c0.2,0.2,0.46,0.31,0.74,0.31c0.28,0,0.54-0.11,0.74-0.31
						c0.04-0.04,0.07-0.07,0.1-0.11V170.47z"/>
					<path class="st2" d="M213.89,170.6c-0.18-0.08-0.34-0.19-0.48-0.33c-0.14-0.14-0.25-0.3-0.33-0.48
						c-0.08-0.18-0.12-0.38-0.12-0.59s0.04-0.4,0.12-0.59c0.08-0.18,0.19-0.34,0.33-0.48c0.14-0.14,0.3-0.24,0.48-0.32
						c0.18-0.08,0.38-0.12,0.59-0.12s0.4,0.04,0.59,0.12c0.18,0.08,0.34,0.18,0.48,0.32c0.14,0.14,0.25,0.3,0.32,0.48
						c0.08,0.19,0.12,0.39,0.12,0.59s-0.04,0.4-0.12,0.59c-0.08,0.18-0.18,0.34-0.32,0.48c-0.14,0.14-0.3,0.25-0.48,0.33
						c-0.19,0.08-0.39,0.12-0.59,0.12S214.07,170.67,213.89,170.6z M213.74,168.46c-0.2,0.2-0.31,0.46-0.31,0.74
						c0,0.28,0.11,0.54,0.31,0.74c0.2,0.2,0.46,0.31,0.74,0.31c0.28,0,0.54-0.11,0.74-0.31c0.2-0.2,0.31-0.46,0.31-0.74
						c0-0.28-0.11-0.54-0.31-0.74c-0.2-0.2-0.46-0.31-0.74-0.31C214.2,168.16,213.94,168.27,213.74,168.46z"/>
					<path class="st2" d="M218.43,168.77v1.95h-0.47v-3.17l1.9,2.09v-1.94h0.48v3.17L218.43,168.77z"/>
					<path class="st2" d="M224.35,168.11h-0.83v2.61h-0.48v-2.61h-0.83v-0.42h2.14V168.11z"/>
					<path class="st2" d="M228.33,170.72h-0.54l-0.76-1.03h-0.35v1.03h-0.47v-3.03h0.4h0.5c0.4,0,0.63,0.16,0.76,0.3
						c0.16,0.18,0.25,0.42,0.25,0.7c0,0.28-0.09,0.52-0.25,0.7c-0.07,0.08-0.19,0.18-0.35,0.23L228.33,170.72z M227.11,169.27
						c0.2,0,0.34-0.06,0.44-0.16c0.11-0.12,0.13-0.29,0.13-0.41c0-0.12-0.02-0.29-0.13-0.42c-0.09-0.11-0.24-0.16-0.44-0.16h-0.42
						v1.15H227.11z"/>
					<path class="st2" d="M230.9,170.6c-0.18-0.08-0.34-0.19-0.48-0.33c-0.14-0.14-0.25-0.3-0.33-0.48
						c-0.08-0.18-0.12-0.38-0.12-0.59s0.04-0.4,0.12-0.59c0.08-0.18,0.19-0.34,0.33-0.48c0.14-0.14,0.3-0.24,0.48-0.32
						c0.18-0.08,0.38-0.12,0.59-0.12s0.4,0.04,0.59,0.12c0.18,0.08,0.34,0.18,0.48,0.32c0.14,0.14,0.25,0.3,0.32,0.48
						c0.08,0.19,0.12,0.39,0.12,0.59s-0.04,0.4-0.12,0.59c-0.08,0.18-0.18,0.34-0.32,0.48c-0.14,0.14-0.3,0.25-0.48,0.33
						c-0.19,0.08-0.39,0.12-0.59,0.12S231.08,170.67,230.9,170.6z M230.75,168.46c-0.2,0.2-0.31,0.46-0.31,0.74
						c0,0.28,0.11,0.54,0.31,0.74c0.2,0.2,0.46,0.31,0.74,0.31c0.28,0,0.54-0.11,0.74-0.31c0.2-0.2,0.31-0.46,0.31-0.74
						c0-0.28-0.11-0.54-0.31-0.74c-0.2-0.2-0.46-0.31-0.74-0.31C231.21,168.16,230.95,168.27,230.75,168.46z"/>
					<path class="st2" d="M236.7,170.72h-1.27h-0.47v-3.03h0.47v2.6h1.27V170.72z"/>
				</g>
				<g>
					<path class="st6" d="M201.64,170.76v-0.38l0.8-0.8l-0.83-0.83l1.18-1.18h0.19v0.38l-0.8,0.8l0.83,0.83l-1.18,1.18H201.64z"/>
					<path class="st6" d="M204.66,170.76v-0.38l0.8-0.8l-0.83-0.83l1.18-1.18H206v0.38l-0.8,0.8l0.83,0.83l-1.18,1.18H204.66z"/>
				</g>
			</g>
		</g>
	</g>
</g>
<g id="comprar_puntos" class="st0">
	<g class="st1">
		<path class="st2" d="M269.83,49.78c0,66.79,0,133.58,0,200.37c-0.14,0.36-0.32,0.71-0.4,1.09c-2.39,11.25-11.16,18.51-22.58,18.56
			c-11.39,0.05-22.78,0.17-34.17-0.09c-3.25-0.07-6.61-1.02-9.69-2.17c-4.59-1.72-7.74-5.34-10.25-9.53
			c-0.52,0.19-0.88,0.31-1.23,0.46c-14.75,6.19-30.06,8.53-45.99,6.7c-1.38-0.16-2.81-0.06-4.2,0.09
			c-10.02,1.06-19.94,0.53-29.73-1.84c-25.73-6.23-45.46-21.12-60.11-42.76c-17.39-25.69-23.73-54.26-20.49-85
			c2.33-22.09,9.65-42.43,23.14-60.12c22.2-29.13,51.09-44.3,88.48-40.77c1.31,0.12,2.65,0.02,3.96-0.12
			c10.1-1.04,20.12-0.6,29.95,1.96c5.48,1.42,10.84,3.3,16.44,5.02c2.05-3.59,4.91-6.79,8.87-8.71c2.42-1.18,5.07-1.88,7.62-2.8
			c13.58,0,27.15,0,40.73,0c0.51,0.15,1.01,0.34,1.53,0.46c8.16,1.89,13.79,6.71,16.76,14.55
			C269.03,46.64,269.38,48.23,269.83,49.78z M237.92,149.99c0-16.85,0.02-33.7-0.03-50.55c0-1.19-0.25-2.5-0.79-3.55
			c-8.15-16-19.28-29.49-34.4-39.34c-22.56-14.69-46.87-18.57-72.61-10.16c-23.51,7.68-40.59,23.4-52.62,44.63
			C62.8,116.89,58.8,144.7,64.48,173.74c5.22,26.7,17.8,49.39,39.72,66.01c23.65,17.94,50.02,23.04,78.38,13.5
			c25.36-8.54,42.76-26.36,54.83-49.78c0.43-0.84,0.49-1.95,0.49-2.93C237.93,183.69,237.92,166.84,237.92,149.99z M213.83,54.35
			c2.42-6.57,4.88-8.27,11.99-8.27c2.81,0,5.62,0,8.42,0c8.1,0,11.65,3.57,11.65,11.72c0,61.47,0,122.94,0,184.41
			c0,0.62,0.01,1.25-0.01,1.87c-0.18,5.66-4.18,9.67-9.83,9.78c-3.28,0.06-6.57,0.21-9.82-0.05c-2.65-0.21-5.65-0.35-7.79-1.66
			c-2.16-1.33-3.44-4.07-5.13-6.21c-4.08,2.68-8.62,5.67-13.25,8.71c2.96,4.78,7.25,7.17,12.81,7.19
			c10.84,0.05,21.69,0.02,32.53,0.01c10.6,0,16.44-5.88,16.44-16.54c0-63.58,0-127.15,0-190.73c0-0.86,0.02-1.72-0.03-2.57
			c-0.41-7.51-6.41-13.71-13.9-13.83c-12.01-0.18-24.03-0.16-36.04,0.01c-5.16,0.07-9.11,2.68-11.81,7.13
			C204.75,48.38,209.29,51.37,213.83,54.35z M237.9,80.88c0-8.74,0.05-16.74-0.09-24.74c-0.01-0.7-1.23-1.94-1.94-1.97
			c-3.96-0.19-7.94-0.19-11.9-0.01c-0.71,0.03-1.86,1.19-1.95,1.93c-0.42,3.27-0.23,6.26,2.8,8.75c2.67,2.19,4.74,5.13,6.95,7.84
			C233.76,75.14,235.57,77.75,237.9,80.88z M237.91,219.75c-0.16-0.06-0.33-0.12-0.49-0.17c-0.47,0.66-0.9,1.36-1.41,1.99
			c-3.61,4.47-6.97,9.2-10.97,13.3c-2.55,2.62-3.49,5.22-3.16,8.67c0.16,1.67,0.8,2.38,2.44,2.37c3.66-0.03,7.32-0.05,10.97,0.01
			c1.91,0.03,2.64-0.83,2.63-2.68c-0.04-6.3-0.02-12.61-0.02-18.91C237.91,222.79,237.91,221.27,237.91,219.75z M51.84,93.34
			c0.16,0.24,0.32,0.48,0.49,0.71c4.18,0,8.37-0.06,12.55,0.03c1.47,0.03,2.15-0.55,2.84-1.8c2.38-4.29,4.93-8.48,7.4-12.71
			c0.25-0.42,0.42-0.89,0.72-1.55c-4.33,0-8.38-0.04-12.42,0.04c-0.66,0.01-1.55,0.45-1.92,0.99
			C58.23,83.79,55.05,88.57,51.84,93.34z M49.42,201.92c3.32,5.44,6.28,10.34,9.31,15.21c0.23,0.38,0.87,0.7,1.33,0.71
			c4.33,0.05,8.66,0.03,13.08,0.03c-2.7-5.25-5.27-10.28-7.92-15.27c-0.21-0.39-1.01-0.64-1.54-0.65
			C59.23,201.9,54.8,201.92,49.42,201.92z M54.14,142.13c-5.12,0-10.3,0-15.96,0c0,3.52-0.03,6.99,0.04,10.46
			c0.01,0.46,0.58,1.28,0.91,1.29c4.94,0.08,9.88,0.06,15.01,0.06C54.14,149.84,54.14,146.06,54.14,142.13z M55.02,133.88
			c0.65-3.93,1.29-7.83,1.94-11.84c-5.44,0-10.41,0-15.71,0c-0.68,3.9-1.35,7.77-2.05,11.84C44.64,133.88,49.75,133.88,55.02,133.88
			z M42.33,182.04c1.32,3.93,2.54,7.6,3.83,11.24c0.11,0.31,0.72,0.62,1.1,0.62c4.72,0.04,9.43,0.03,14.37,0.03
			c-1.28-4.18-2.46-8.02-3.65-11.9C52.88,182.04,47.85,182.04,42.33,182.04z M56.14,173.79c-0.44-3.51-0.82-6.9-1.33-10.28
			c-0.08-0.54-0.7-1.42-1.09-1.43c-4.89-0.1-9.77-0.06-15.03-0.06c0.61,4.14,1.18,7.95,1.75,11.77
			C45.86,173.79,50.98,173.79,56.14,173.79z M63.1,102.08c-4.93,0-9.59-0.02-14.25,0.03c-0.38,0-0.98,0.32-1.1,0.64
			c-1.45,3.63-2.82,7.29-4.33,11.24c5.21,0,9.88,0.03,14.54-0.05c0.52-0.01,1.32-0.55,1.49-1.02
			C60.69,109.48,61.79,106.01,63.1,102.08z M89.34,237.89c-3.47-4.06-6.65-7.79-9.86-11.48c-0.26-0.3-0.79-0.53-1.2-0.53
			c-4.1-0.04-8.2-0.02-12.3-0.02c-0.14,0.23-0.28,0.46-0.42,0.68c3.95,3.69,7.89,7.39,11.86,11.06c0.25,0.23,0.72,0.29,1.09,0.29
			C82.01,237.9,85.5,237.89,89.34,237.89z M69.45,69.26c0.13,0.25,0.25,0.49,0.38,0.74c4,0,8,0.01,12-0.02
			c0.33,0,0.73-0.27,0.98-0.52c3.51-3.68,7-7.39,10.71-11.32c-3.41,0-6.57-0.01-9.74,0.02c-0.44,0-0.97,0.11-1.3,0.38
			C78.12,62.08,73.79,65.68,69.45,69.26z M90.26,245.89c6.98,4.57,14.44,7.77,23.1,9.72c-5.06-3.39-9.55-6.42-14.07-9.41
			c-0.36-0.24-0.88-0.3-1.33-0.3C95.39,245.87,92.82,245.89,90.26,245.89z M113.66,44.58c-0.08-0.21-0.15-0.42-0.23-0.63
			c-5.23,1.82-10.47,3.64-16.29,5.67C104.51,51.88,108.62,46.94,113.66,44.58z"/>
		<path class="st2" d="M186.63,67.26c0.45,0.15,1.16,0.28,1.76,0.61c2.37,1.33,4.78,2.61,7.03,4.11c1.92,1.28,2.27,3.52,1.11,5.34
			c-1.12,1.77-3.36,2.39-5.32,1.33c-2.39-1.29-4.75-2.64-7.04-4.1c-1.59-1.02-2.22-2.58-1.63-4.45
			C183.13,68.26,184.5,67.39,186.63,67.26z"/>
		<path class="st2" d="M153.58,239.98c-1.94-0.18-3.88-0.31-5.81-0.56c-2.29-0.29-3.74-1.98-3.65-4.09c0.09-2.22,1.8-3.86,4.18-3.82
			c2.49,0.05,4.97,0.26,7.45,0.42c2.66,0.18,4.47,1.95,4.37,4.22c-0.11,2.38-1.81,3.75-4.68,3.75c-0.62,0-1.25,0-1.87,0
			C153.59,239.93,153.58,239.95,153.58,239.98z"/>
		<path class="st2" d="M221.98,118.99c0.32-2.42,1.22-3.76,3.13-4.2c1.88-0.43,3.65,0.11,4.33,1.87c1.17,3.03,2.13,6.17,2.78,9.35
			c0.37,1.8-0.8,3.26-2.65,3.91c-1.87,0.66-3.73,0.16-4.44-1.5C223.76,125.24,222.9,121.84,221.98,118.99z"/>
		<path class="st2" d="M159.33,60.05c1.18,0.11,3.05,0.22,4.9,0.49c2.1,0.31,3.54,2.06,3.47,4.03c-0.08,2.07-1.76,3.85-3.95,3.83
			c-2.72-0.02-5.44-0.19-8.14-0.46c-2.22-0.22-3.76-2.06-3.69-4.1c0.08-2.22,1.71-3.71,4.18-3.78
			C156.94,60.03,157.79,60.05,159.33,60.05z"/>
		<path class="st2" d="M136.48,69.19c-0.45,0.53-1.16,1.92-2.29,2.57c-2.28,1.3-4.76,2.26-7.2,3.26c-2.22,0.9-4.37,0.04-5.28-1.97
			c-0.91-2.01-0.14-4.21,2.04-5.27c2.37-1.16,4.78-2.24,7.25-3.16C133.89,63.53,136.54,65.38,136.48,69.19z"/>
		<path class="st2" d="M110.21,84.56c0,3.13-6.64,10.72-8.84,10.58c-1.29-0.08-3.01-0.81-3.64-1.81c-0.63-1.01-0.68-3.1-0.03-4.04
			c1.76-2.52,3.87-4.87,6.2-6.89c0.86-0.75,2.89-0.84,4.04-0.38C109.08,82.47,109.76,84.01,110.21,84.56z"/>
		<path class="st2" d="M96.3,197.91c1.34,0.92,2.57,1.47,3.37,2.4c1.58,1.81,2.94,3.8,4.34,5.76c1.53,2.15,1.32,4.36-0.49,5.8
			c-1.8,1.43-4.12,1.14-5.74-0.88c-1.65-2.05-3.38-4.1-4.64-6.4c-0.6-1.1-0.62-2.94-0.11-4.09
			C93.49,199.45,95.02,198.86,96.3,197.91z"/>
		<path class="st2" d="M190.73,229.3c-0.45,0.55-1.12,1.99-2.25,2.63c-2.42,1.37-5.03,2.43-7.63,3.43c-2.05,0.79-4.26-0.3-5-2.21
			c-0.77-2,0.01-4.11,2.06-5.09c2.45-1.17,4.92-2.3,7.45-3.28C188.03,223.74,190.72,225.65,190.73,229.3z"/>
		<path class="st2" d="M230.2,181.82c-1.05,2.47-2.22,5.84-3.89,8.95c-0.94,1.74-3,1.88-4.77,0.94c-1.77-0.93-2.62-2.53-1.97-4.49
			c0.9-2.72,1.93-5.41,3.08-8.04c0.81-1.85,2.42-2.59,4.41-2.16C229.07,177.46,230.05,178.83,230.2,181.82z"/>
		<path class="st2" d="M215.35,207.91c-0.37,1.2-0.4,2.01-0.81,2.49c-2.11,2.47-4.18,5.01-6.55,7.22c-1.45,1.36-3.36,0.99-4.88-0.34
			c-1.42-1.25-1.78-3.55-0.55-5.07c1.9-2.35,3.84-4.72,6.11-6.68c0.88-0.76,2.88-0.92,4.05-0.48
			C213.85,205.47,214.57,207.01,215.35,207.91z"/>
		<path class="st2" d="M227.24,153.71c0-1.32-0.08-2.65,0.02-3.96c0.18-2.31,2.02-4,4.13-3.91c2.2,0.09,3.8,1.75,3.78,4.18
			c-0.01,2.64-0.1,5.28-0.35,7.91c-0.22,2.29-1.99,3.77-4.04,3.69c-2.16-0.08-3.81-1.83-3.84-4.19c-0.01-1.24,0.16-2.48,0.24-3.72
			C227.21,153.72,227.22,153.71,227.24,153.71z"/>
		<path class="st2" d="M79.63,174.46c0.12-2.97,1.19-4.31,3.15-4.74c1.98-0.44,3.69,0.35,4.38,2.22c1.04,2.83,1.88,5.76,2.53,8.7
			c0.44,1.97-0.58,3.53-2.48,4.23c-1.88,0.7-3.84,0.26-4.62-1.57C81.27,180.19,80.41,176.87,79.63,174.46z"/>
		<path class="st2" d="M86.64,122.86c-3.45,0.01-5.4-2.32-4.62-4.88c0.85-2.81,1.94-5.57,3.15-8.25c0.88-1.95,3.05-2.67,4.94-1.86
			c1.98,0.85,2.96,2.49,2.34,4.51c-0.91,2.95-2.03,5.87-3.39,8.64C88.56,122.01,87.11,122.52,86.64,122.86z"/>
		<path class="st2" d="M84.72,146c0,1.4,0.13,2.81-0.03,4.2c-0.26,2.4-2.08,3.93-4.24,3.77c-2.12-0.16-3.61-1.73-3.64-4.08
			c-0.02-2.57,0.04-5.14,0.23-7.7c0.19-2.56,1.96-4.1,4.28-3.96c2.23,0.13,3.63,1.76,3.65,4.28c0.01,1.17,0,2.33,0,3.5
			C84.89,146,84.8,146,84.72,146z"/>
		<path class="st2" d="M125.43,232.62c-0.66-0.2-1.38-0.29-1.97-0.62c-2.37-1.32-4.76-2.62-7.03-4.1c-1.84-1.2-2.25-3.56-1.18-5.34
			c1.1-1.82,3.27-2.47,5.28-1.4c2.39,1.28,4.73,2.66,7.04,4.09c1.74,1.08,2.44,2.87,1.57,4.62c-0.63,1.27-2.11,2.11-3.22,3.14
			C125.76,232.89,125.6,232.76,125.43,232.62z"/>
		<path class="st2" d="M210.74,86.56c1.3,0.86,2.49,1.33,3.24,2.2c1.67,1.93,3.19,4.01,4.63,6.11c1.42,2.07,1,4.49-0.85,5.78
			c-1.76,1.24-4.04,0.85-5.55-1.06c-1.59-2.01-3.31-3.96-4.51-6.19c-0.63-1.17-0.71-3.04-0.23-4.28
			C207.88,88.07,209.47,87.5,210.74,86.56z"/>
	</g>
</g>
<g id="historial_de_compras" class="st0">
	<g class="st1">
		<path class="st2" d="M149.99,91.51l-0.02,51.58c0,1.96,0.78,3.83,2.16,5.21l36.9,36.89l10.42-10.42l-34.74-34.73l0.02-48.52
			H149.99z"/>
		<path class="st2" d="M164.74,32.53c-51.89,0-94.84,38.54-102.03,88.47H32.04l36.86,36.86L105.77,121H77.61
			c7.05-41.77,43.39-73.72,87.14-73.72c48.78,0,88.47,39.68,88.47,88.47s-39.68,88.47-88.47,88.47c-4.82,0-7.4-0.39-12.06-1.14
			c0.32,2.74,1.58,15.25,1.58,15.25s6.62,0.63,10.48,0.63c56.91,0,103.21-46.31,103.21-103.21S221.66,32.53,164.74,32.53z"/>
		<g>
			<path class="st2" d="M103.67,151.26c1.47,0.33,2.96,0.57,4.4,1c9.28,2.79,15.8,11.19,16.26,20.89c0.01,0.19,0.04,0.37,0.07,0.68
				c0.41,0.02,0.81,0.05,1.21,0.05c3.97,0,7.94,0,11.91,0.01c2.4,0.01,3.55,1.03,3.77,3.43c0.8,8.88,1.56,17.77,2.35,26.66
				c0.8,8.96,1.61,17.92,2.41,26.88c0.62,6.93,1.36,13.85,1.8,20.79c0.3,4.73-1.85,8.57-5.42,11.58c-3.53,2.97-7.68,4.24-12.27,4.24
				c-19.17,0-38.35,0.01-57.52-0.02c-1.5,0-3.04-0.11-4.49-0.47c-6.49-1.59-11.22-5.24-12.84-11.98c-0.45-1.89-0.31-3.98-0.14-5.95
				c1.21-14.05,2.5-28.09,3.75-42.13c0.87-9.79,1.72-19.58,2.57-29.37c0.23-2.66,1.31-3.65,4.02-3.66c3.86,0,7.71,0,11.57,0
				c0.41,0,0.82,0,1.21,0c0.27-1.73,0.42-3.39,0.81-4.98c2.25-9.37,9.87-16.19,19.4-17.44c0.22-0.03,0.42-0.13,0.64-0.2
				C100.65,151.26,102.16,151.26,103.67,151.26z M67.72,180.35c-0.05,0.27-0.08,0.42-0.1,0.57c-0.83,9.3-1.66,18.6-2.48,27.9
				c-1.24,14.12-2.47,28.24-3.74,42.36c-0.22,2.48,0.55,4.54,2.21,6.31c2.37,2.52,5.41,3.56,8.78,3.57
				c19.32,0.03,38.65,0.02,57.97,0.01c2.79,0,5.39-0.73,7.62-2.47c2.19-1.72,3.68-3.92,3.45-6.79c-0.9-10.89-1.89-21.77-2.86-32.65
				c-1.05-11.82-2.1-23.64-3.16-35.47c-0.1-1.11-0.23-2.22-0.34-3.3c-3.64,0-7.14,0-10.73,0c0,3.2,0.02,6.34-0.01,9.47
				c-0.01,1.99-1.35,3.39-3.18,3.4c-1.83,0-3.18-1.4-3.19-3.39c-0.02-2.76-0.01-5.52-0.01-8.28c0-0.4,0-0.8,0-1.21
				c-11.11,0-22.06,0-33.12,0c0,0.43,0,0.79,0,1.16c0,2.68,0.01,5.37,0,8.05c-0.01,2.19-1.26,3.63-3.16,3.66
				c-1.95,0.03-3.22-1.42-3.23-3.69c-0.01-2.23,0-4.46,0-6.69c0-0.82,0-1.64,0-2.5C74.8,180.35,71.3,180.35,67.72,180.35z
				 M84.85,173.82c11.08,0,22.03,0,33.11,0c-0.35-5.85-2.8-10.48-7.72-13.54c-5.82-3.61-11.85-3.61-17.67,0
				C87.65,163.35,85.2,167.97,84.85,173.82z"/>
		</g>
	</g>
</g>
<g id="editar_direccion" class="st0">
	<g class="st1">
		<g>
			<path class="st2" d="M255.2,166.33c0-0.34-0.02-0.68-0.07-1.02c-0.32-2.41-2.27-4.23-4.68-4.39c-3.37-0.23-5.63,2.03-5.63,5.76
				c-0.02,14.9,0,29.8-0.01,44.71c-0.01,10.18-6.64,16.83-16.82,16.83c-41.43,0.01-82.87,0.01-124.3,0
				c-1.3,2.12-2.84,4.13-4.11,6.23c-0.84,1.4-1.68,2.8-2.52,4.2c43.7-0.01,87.4-0.01,131.1-0.01c0.82,0,1.64-0.03,2.46-0.07
				c13.19-0.62,24.29-11.63,24.49-24.86C255.36,197.91,255.19,182.12,255.2,166.33z"/>
			<path class="st2" d="M128.44,50.09c-15.79-0.03-31.58-0.18-47.37,0.11c-9.21,0.17-16.34,4.72-21.02,12.59
				c-1.8,3.03-2.61,6.66-3.86,10.01v93.44c3.29-1.33,6.91-1.76,10.46-2.18c-0.01-28.94-0.01-57.89,0.01-86.83
				c0.01-10.21,6.63-16.71,16.88-16.72c14.9-0.01,29.8,0.01,44.71-0.01c3.37,0,5.69-2.11,5.76-5.11
				C134.08,52.43,131.79,50.1,128.44,50.09z"/>
			<path class="st2" d="M266.2,59.48c-0.14,6.07-2.17,11.46-6.35,15.94c-2.38,2.55-4.89,4.97-7.35,7.43
				c-28.36,28.36-56.73,56.72-85.06,85.11c-1.66,1.66-3.49,2.7-5.74,3.31c-13.56,3.69-27.09,7.46-40.63,11.21
				c-0.59,0.16-1.18,0.36-1.77,0.49c-3.96,0.87-7.38-2.48-6.32-6.4c4.01-14.74,8.1-29.46,12.25-44.17c0.31-1.12,1.12-2.21,1.95-3.05
				c30.7-30.76,61.41-61.5,92.17-92.19c10.05-10.03,24.31-9.98,34.36,0.01c2.71,2.69,5.47,5.38,7.86,8.34
				C264.8,49.51,266.11,54.3,266.2,59.48z M214.34,57.42c-25.3,25.29-50.66,50.65-75.8,75.78c8.03,8.03,16.17,16.17,24.15,24.15
				c25.19-25.19,50.55-50.55,75.78-75.78C230.5,73.58,222.39,65.48,214.34,57.42z M221.95,49.25c8.29,8.3,16.42,16.44,24.59,24.62
				c1.92-1.9,4.07-3.81,5.96-5.95c4.36-4.93,4.33-12.32-0.09-17.21c-2.29-2.53-4.71-4.95-7.24-7.24c-4.63-4.17-11.58-4.5-16.39-0.67
				C226.27,44.78,224.11,47.18,221.95,49.25z M152.18,163.02c-6.53-6.51-12.94-12.9-19.3-19.24c-2.38,8.58-4.82,17.42-7.36,26.61
				C134.72,167.85,143.55,165.41,152.18,163.02z"/>
		</g>
		<g>
			<path class="st2" d="M72.16,168.6c1.95,0.33,3.92,0.57,5.84,1.02c14.17,3.34,25.05,15.42,26.99,29.86
				c1.11,8.31-0.45,16.08-4.73,23.26c-9.09,15.26-18.24,30.48-27.36,45.71c-1.5,2.5-4.06,2.53-5.59,0.07
				c-9.37-15.09-18.8-30.14-28.08-45.28c-11.2-18.26-4.42-41.56,14.77-51.05c3.86-1.91,7.95-3.04,12.25-3.42
				c0.26-0.02,0.51-0.11,0.76-0.17C68.72,168.6,70.44,168.6,72.16,168.6z M70.02,261.57c0.15-0.22,0.25-0.35,0.33-0.49
				c8.29-13.85,16.62-27.68,24.87-41.56c3.88-6.53,5.01-13.57,3.58-21.04c-3.53-18.46-24.04-29.16-41.16-21.46
				c-16.86,7.59-22.99,27.53-13.26,43.28c8.33,13.48,16.71,26.93,25.07,40.4C69.63,260.98,69.81,261.25,70.02,261.57z"/>
			<path class="st2" d="M51.7,204.37c0-9.85,8.02-17.88,17.86-17.88c9.85-0.01,17.89,8,17.9,17.84c0.02,9.93-7.98,17.93-17.91,17.92
				C59.69,222.24,51.7,214.24,51.7,204.37z M69.57,216.31c6.59,0,11.93-5.32,11.94-11.91c0.01-6.58-5.32-11.96-11.88-11.98
				c-6.62-0.02-12,5.36-11.99,11.97C57.65,210.98,62.98,216.31,69.57,216.31z"/>
		</g>
	</g>
</g>
<g id="manejo_de_tarjeta" class="st0">
	<g class="st1">
		<path class="st2" d="M251.47,270.1c-53.1,0-106.19,0-159.29,0c-0.12-0.1-0.22-0.24-0.36-0.28c-12.77-3.43-18.41-10.79-18.41-24.05
			c0-27.7-0.02-55.4,0.04-83.1c0.01-2.47,0.59-4.94,0.83-7.42c0.07-0.7,0.09-1.58-0.27-2.11c-4.38-6.56-9.07-12.92-13.22-19.61
			c-7.15-11.51-16.09-21.1-27.88-27.94c-1.27-0.74-2.16-2.13-3.22-3.22c0-2.66,0-5.33,0-7.99c0.14-0.59,0.31-1.18,0.43-1.78
			c1.01-5.05,1.53-10.26,3.09-15.13c6.77-21.24,21.14-35.92,40.56-46.16c3.97-2.1,7.01-1.86,10.68,0.89
			c10.92,8.16,22.29,15.72,35.49,19.78c10.98,3.37,22.1,6.28,33.12,9.56c12.44,3.7,24.85,7.46,36.53,13.29
			c6.4,3.2,10.84,7.95,13.48,14.63c4.2,10.6,6.74,21.63,8.9,32.77c1.07,5.51,1.98,11.04,2.99,16.72c0.98,0,1.83,0,2.68,0
			c10.49,0.01,20.99-0.11,31.48,0.07c11.47,0.2,21,9.59,21.06,21.04c0.15,29.6,0.14,59.2,0,88.8c-0.04,7.73-3.71,13.87-10.33,17.89
			C257.32,268.26,254.28,269,251.47,270.1z M203.51,138.92c0-0.78,0.1-1.34-0.01-1.85c-2.8-12.66-5.63-25.32-8.43-37.98
			c-1.91-8.62-7.26-13.82-15.43-17.03c-14.66-5.76-29.77-10.01-44.82-14.49c-9.5-2.83-19.08-5.54-28.28-9.2
			c-9.69-3.85-18.29-9.87-26.76-15.93c-0.9-0.64-1.62-1.23-2.9-0.53c-21.38,11.79-34.28,29.22-36,54.07
			c-0.05,0.75,0.41,1.9,1.01,2.28c13.17,8.35,22.67,20.01,30.49,33.26c2.38,4.04,4.76,8.15,7.73,11.75
			c8.06,9.75,18.01,16.27,31.1,17.15c4.89,0.33,9.86,0.83,14.59,2.02c11.5,2.88,21.86,8.39,31.65,14.97
			c6.41,4.3,13.09,7.99,20.68,9.73c4.8,1.1,9.62,1.49,14.23-0.79c3.95-1.95,4.68-3.98,2.88-7.97c-0.67-1.49-1.48-2.96-2.46-4.25
			c-6.61-8.67-14.72-15.41-24.69-20.06c-7.78-3.62-15.43-7.59-22.8-11.98c-6.48-3.86-12.15-8.87-15.88-15.66
			c-1.98-3.6-1.98-5.92,1.03-8.68c2.95-2.7,6.47-4.81,9.85-7.01c1.88-1.23,4.15-1.89,5.91-3.25c1.91-1.47,3.7-1.73,5.88-0.98
			c4.87,1.68,9.75,3.37,14.68,4.86c2.53,0.77,4.2,2.13,5.15,4.63c2.05,5.41,4.24,10.76,6.41,16.13c0.91,2.24,1.34,5.29,3.03,6.42
			c1.69,1.13,4.68,0.36,7.1,0.37C193.44,138.94,198.43,138.92,203.51,138.92z M259.37,215.34c0-0.96,0-1.66,0-2.35
			c0-17.07,0.01-34.13-0.01-51.2c-0.01-7.49-4.53-11.97-12.02-11.97c-20.59-0.01-41.18,0-61.77,0c-0.66,0-1.31,0.07-2.5,0.14
			c1.17,0.86,1.97,1.34,2.63,1.96c4.47,4.13,9.28,7.98,13.25,12.56c2.96,3.41,5.37,7.56,7.07,11.76c2.89,7.15,0.62,13.39-5.59,17.95
			c-5.17,3.79-11.02,5.08-17.29,4.72c-10.37-0.61-19.5-4.73-28.2-10.06c-5.33-3.27-10.58-6.71-16.11-9.61
			c-7.85-4.12-16.05-7.6-25.11-7.73c-10-0.15-19.11-2.83-27.43-8.35c-0.54-0.36-1.15-0.61-1.82-0.95c0,17.86,0,35.43,0,53.15
			C142.78,215.34,200.91,215.34,259.37,215.34z M84.06,248.41c0.66,1.98,0.96,3.71,1.77,5.15c2.35,4.17,6.17,5.66,10.82,5.66
			c50.09-0.03,100.17-0.02,150.26-0.02c0.78,0,1.57,0.01,2.34-0.08c5.82-0.66,9.81-4.91,9.89-10.72
			C200.98,248.41,142.82,248.41,84.06,248.41z M84.46,237.13c58.41,0,116.54,0,174.76,0c0-3.61,0-7.08,0-10.57
			c-58.34,0-116.52,0-174.76,0C84.46,230.15,84.46,233.56,84.46,237.13z M140.05,123.05c1.13,1.3,1.76,2.34,2.67,3.02
			c4.67,3.51,9.46,6.87,14.11,10.4c3.67,2.79,7.79,2.68,12.33,2.29c-1.6-4.04-3.39-7.86-4.61-11.85c-1.21-3.95-3.22-6.49-7.53-7.02
			c-1.67-0.2-3.26-1.05-4.89-1.58c-0.5-0.16-1.15-0.47-1.54-0.3C147.14,119.6,143.75,121.27,140.05,123.05z"/>
	</g>
</g>
<g id="carrito" class="st0">
	<g class="st1">
		<path class="st2" d="M273.43,75.78c-0.81,5.05-1.67,10.09-2.4,15.15c-2.99,20.74-5.93,41.48-8.89,62.22
			c-0.53,3.73-1.07,7.47-1.65,11.2c-1.09,6.96-6.04,11.27-13.1,11.29c-15.59,0.04-31.18,0.01-46.76,0.01c-31.58,0-63.15,0-94.73,0
			c-0.95,0-1.91,0-3.24,0c0.71,4.37,1.39,8.52,2.11,12.9c1.12,0,2.15,0,3.18,0c42.02,0,84.05,0,126.07,0
			c7.14,0,12.2,3.88,13.48,10.26c1.54,7.64-3.99,14.85-11.77,15.32c-0.88,0.05-1.77,0.03-2.65,0.03c-45.8,0-91.6,0-137.4,0
			c-8.4,0-13.32-4.17-14.7-12.47c-7.72-46.31-15.43-92.62-23.15-138.93c-0.13-0.78-0.33-1.54-0.53-2.47
			c-5.95,0-11.8,0.06-17.65-0.01c-7.56-0.09-13.22-5.85-13.07-13.17c0.14-6.53,5.28-12.2,11.8-12.34
			c10.28-0.22,20.57-0.21,30.85-0.01c6.16,0.12,10.76,4.84,11.81,11.36c0.76,4.67,1.56,9.32,2.37,14.17c1.19,0,2.22,0,3.24,0
			c56.81,0,113.61,0.09,170.42-0.1c8.03-0.03,13.7,2.41,16.36,10.28C273.43,72.24,273.43,74.01,273.43,75.78z M196.57,111.37
			c15.34,0,30.41,0,45.62,0c1.21-8.51,2.39-16.88,3.59-25.31c-16.57,0-32.84,0-49.21,0C196.57,94.54,196.57,102.87,196.57,111.37z
			 M87.67,86c1.46,8.72,2.88,17.22,4.26,25.48c13.63,0,26.91,0,40.24,0c0-8.64,0-17.01,0-25.48C117.35,86,102.69,86,87.67,86z
			 M240.28,124.59c-14.68,0-29.14,0-43.64,0c0,8.55,0,16.93,0,25.26c13.46,0,26.74,0,40.05,0
			C237.9,141.37,239.08,133.05,240.28,124.59z M145.27,111.31c12.92,0,25.62,0,38.3,0c0-8.53,0-16.84,0-25.25
			c-12.82,0-25.52,0-38.3,0C145.27,94.53,145.27,102.85,145.27,111.31z M183.53,149.96c0-8.62,0-17,0-25.43
			c-12.81,0-25.45,0-38.15,0c0,8.55,0,16.99,0,25.43C158.17,149.96,170.75,149.96,183.53,149.96z M94.1,124.57
			c1.43,8.55,2.83,16.93,4.23,25.32c11.39,0,22.6,0,33.82,0c0-8.53,0-16.91,0-25.32C119.38,124.57,106.8,124.57,94.1,124.57z"/>
		<path class="st2" d="M132.31,246.26c-0.02,10.72-8.62,19.22-19.36,19.13c-10.62-0.08-19.03-8.59-19.01-19.23
			c0.02-10.72,8.63-19.23,19.35-19.13C123.92,227.13,132.34,235.64,132.31,246.26z"/>
		<path class="st2" d="M228.44,265.39c-10.69-0.05-19.22-8.71-19.12-19.41c0.09-10.52,8.76-19.01,19.34-18.95
			c10.57,0.06,19.14,8.63,19.15,19.17C247.82,256.83,239.12,265.45,228.44,265.39z"/>
	</g>
</g>
<g id="estadisticas" class="st0">
	<g class="st1">
		<path class="st2" d="M267.76,264.98c-1.12,1.81-2.74,2.35-4.85,2.34c-12.87-0.07-25.75-0.03-38.62-0.04
			c-3.67,0-4.78-1.12-4.78-4.82c0-51.57-0.01-103.14,0-154.71c0-6.61,3.76-10.34,10.44-10.36c8.74-0.03,17.47,0.16,26.2-0.07
			c5.8-0.15,9.76,1.94,11.6,7.57C267.76,158.26,267.76,211.62,267.76,264.98z M260.86,260.26c0-0.78,0-1.45,0-2.12
			c0-50.04,0-100.09,0-150.13c0-3.14-0.59-3.72-3.8-3.73c-8.81-0.01-17.63-0.01-26.44,0c-3.72,0-4.21,0.5-4.21,4.27
			c0,49.74,0,99.47,0,149.21c0,0.81,0,1.63,0,2.49C238.02,260.26,249.33,260.26,260.86,260.26z"/>
		<path class="st2" d="M32.24,173.9c2.2-5.53,6.37-7.41,12.14-7.23c8.34,0.26,16.7,0.05,25.04,0.07
			c7.54,0.02,11.06,3.58,11.06,11.17c0,28.03,0,56.07,0,84.1c0,4.3-0.96,5.26-5.26,5.26c-12.71,0-25.43-0.04-38.14,0.04
			c-2.11,0.01-3.73-0.52-4.85-2.34C32.24,234.62,32.24,204.26,32.24,173.9z M73.5,260.31c0.04-0.66,0.09-1.11,0.09-1.55
			c0-27.21,0.01-54.43,0-81.64c0-2.71-0.8-3.46-3.66-3.47c-8.89-0.02-17.78-0.02-26.68-0.01c-3.56,0-4.1,0.56-4.1,4.16
			c0,26.68,0,53.35,0,80.03c0,0.81,0,1.62,0,2.48C50.72,260.31,61.98,260.31,73.5,260.31z"/>
		<path class="st2" d="M205.29,196.39c0,21.92,0,43.83,0,65.75c0,4.22-0.91,5.13-5.1,5.14c-12.72,0-25.44,0-38.16,0
			c-3.87,0-4.92-1.04-4.92-4.89c-0.01-43.76-0.01-87.51,0-131.27c0-6.98,3.67-10.59,10.66-10.59c9.2,0,18.39-0.01,27.59,0
			c6.07,0.01,9.92,3.8,9.92,9.88C205.3,152.4,205.28,174.4,205.29,196.39z M198.29,260.28c0.04-0.63,0.09-1.01,0.09-1.39
			c0-42.7,0.01-85.39,0-128.09c0-2.72-0.68-3.37-3.42-3.38c-8.97-0.01-17.94-0.01-26.91,0c-3.56,0-4.06,0.5-4.06,4.16
			c0,42.08,0,84.17,0,126.25c0,0.81,0.07,1.62,0.11,2.44C175.61,260.28,186.86,260.28,198.29,260.28z"/>
		<path class="st2" d="M214.16,49.54c-1.32-1.91-2.55-3.65-3.74-5.42c-1.63-2.42-1.92-5-0.52-7.6c1.44-2.68,3.79-3.93,6.82-3.83
			c12.41,0.44,24.82,0.85,37.22,1.37c5.02,0.21,7.93,4.87,6.26,9.95c-3.2,9.74-6.47,19.46-9.71,29.19
			c-0.65,1.96-1.28,3.93-1.99,5.87c-0.95,2.59-2.83,4.19-5.53,4.63c-2.88,0.47-5.29-0.5-7.04-2.89c-1.17-1.6-2.3-3.24-3.58-5.05
			c-1.11,0.62-2.13,1.25-3.2,1.79c-11.3,5.62-22.61,11.22-33.92,16.82c-0.34,0.17-0.7,0.32-1.06,0.43
			c-1.94,0.56-3.68-0.21-4.37-1.92c-0.69-1.7-0.02-3.53,1.82-4.41c2.83-1.35,5.8-2.43,8.58-3.86c10.13-5.22,20.23-10.5,30.3-15.84
			c3.11-1.65,4.37-1.5,6.36,1.34c1.58,2.24,3.13,4.5,5.01,7.2c4.1-12.31,8.04-24.16,12.1-36.34c-12.76-0.47-25.21-0.92-38.31-1.4
			c1.69,2.43,3.1,4.46,4.51,6.49c3.71,5.34,3.6,6.06-2.06,9.29c-30.15,17.2-62.29,29.27-96.17,36.59
			c-12.63,2.73-25.49,4.34-38.25,6.46c-0.3,0.05-0.61,0.07-0.92,0.08c-2.31,0.09-3.89-1.13-4.04-3.13
			c-0.15-2.01,1.17-3.42,3.49-3.75c8.33-1.21,16.7-2.21,24.99-3.68c28.47-5.04,55.89-13.58,82.17-25.64
			c7.71-3.54,15.18-7.62,22.75-11.47C212.77,50.43,213.39,50.01,214.16,49.54z"/>
		<path class="st2" d="M94.72,207.95c0-17.85,0-35.7,0-53.56c0-7.23,3.61-10.8,10.92-10.8c8.96,0,17.93-0.01,26.89,0
			c6.48,0.01,10.36,3.77,10.36,10.24c0.03,36.24,0.02,72.48,0.01,108.72c0,3.58-1.14,4.71-4.65,4.71c-12.87,0.01-25.74,0.01-38.62,0
			c-3.91,0-4.92-0.99-4.92-4.85C94.71,244.27,94.72,226.11,94.72,207.95z M135.89,260.28c0.05-0.7,0.11-1.22,0.11-1.75
			c0-34.8,0.01-69.59,0-104.39c0-2.91-0.76-3.64-3.71-3.64c-8.81-0.01-17.63-0.01-26.44,0c-3.74,0-4.23,0.48-4.23,4.24
			c0,34.34,0,68.67,0,103.01c0,0.81,0,1.63,0,2.54C113.14,260.28,124.39,260.28,135.89,260.28z"/>
		<path class="st2" d="M49.28,100.32c0,6.09,0,11.87,0,17.92c0.87,0,1.69,0.01,2.5,0c42.8-0.82,84.24-8.83,124.38-23.66
			c0.22-0.08,0.43-0.16,0.65-0.24c2.94-1.05,4.77-0.49,5.57,1.71c0.75,2.04-0.31,3.69-3.09,4.73
			c-15.06,5.64-30.42,10.31-46.08,14.01c-28.28,6.69-56.93,10.31-86.01,10.39c-4.04,0.01-4.94-0.9-4.94-5.02
			c-0.01-7.36-0.01-14.71,0-22.07c0.01-3.45,1.09-4.51,4.5-4.61c6.82-0.19,13.63-0.4,20.45-0.61c2.74-0.08,4.36,1.03,4.53,3.1
			c0.17,2.13-1.46,3.64-4.25,3.77c-5.13,0.23-10.26,0.39-15.39,0.57C51.21,100.34,50.31,100.32,49.28,100.32z"/>
	</g>
</g>
<g id="METAS" class="st0">
	<g class="st1">
		<path class="st2" d="M257.46,76.14c-0.78,4.17-1.22,8.44-2.38,12.5c-7.01,24.44-22.77,40.53-46.95,48.26
			c-3.14,1-5.38,2.46-7.32,5.23c-7.52,10.73-17.62,18.22-29.99,22.56c-1.51,0.53-2.05,1.22-1.95,2.82c0.15,2.44,0.01,4.89,0.05,7.34
			c0.05,3.87,2.54,6.43,6.37,6.63c11.25,0.58,18.76,8.46,18.8,19.72c0.01,1.74,0,3.47,0,5.46c1.87,0,3.59,0,5.32,0
			c4.79,0.01,7.26,2.45,7.27,7.2c0.01,9.51,0,19.02,0,28.53c0,0.75,0,1.51,0,2.46c2.13,0,4.07-0.03,6.01,0.01
			c3.76,0.06,6.52,2.69,6.57,6.21c0.04,3.6-2.75,6.36-6.62,6.36c-41.75,0.02-83.51,0.02-125.26,0c-3.84,0-6.65-2.8-6.59-6.39
			c0.06-3.5,2.84-6.12,6.6-6.18c1.88-0.03,3.77-0.01,5.98-0.01c0-0.81,0-1.54,0-2.28c0-9.58-0.01-19.16,0-28.74
			c0-4.65,2.49-7.15,7.09-7.17c1.74-0.01,3.48,0,5.5,0c0-1.84,0-3.56,0-5.28c0.02-11.45,7.45-19.3,18.83-19.9
			c3.74-0.2,6.26-2.73,6.34-6.45c0.05-2.73,0.1-5.46-0.05-8.18c-0.04-0.67-0.71-1.66-1.32-1.88c-13.73-4.87-24.55-13.39-32.54-25.56
			c-0.47-0.72-1.46-1.27-2.32-1.54c-9.49-2.92-18.47-6.88-26.26-13.14c-16.64-13.37-25.11-30.86-26-52.09
			c-0.16-3.7-0.07-7.41-0.03-11.12c0.1-9.12,6.08-16.49,14.97-18.54c0.47-0.11,0.92-0.28,1.38-0.42c60.71,0,121.42,0,182.13,0
			c0.39,0.13,0.78,0.3,1.18,0.39c6.47,1.41,11.03,5.19,13.68,11.22c0.67,1.52,1.01,3.17,1.51,4.77
			C257.46,64.67,257.46,70.4,257.46,76.14z M94.18,55.26c0.07,0.87,0.1,1.62,0.18,2.37c1.49,13.4,2.93,26.81,4.49,40.21
			c0.78,6.73,1.1,13.61,2.81,20.1c4.99,18.94,17.35,30.94,36.18,36.24c4.3,1.21,5.86,3.1,5.87,7.63c0.01,3.92-0.14,7.84,0.03,11.75
			c0.54,12.28-8.93,20.59-19.1,20.54c-2.99-0.02-5.53,2.09-5.91,4.99c-0.32,2.44-0.07,4.96-0.07,7.4c21.01,0,41.88,0,62.82,0
			c0-1.77,0-3.38,0-4.98c-0.01-4.96-2.22-7.24-7.24-7.47c-8.63-0.41-16.33-6.82-17.46-15.35c-0.72-5.44-0.4-11.01-0.47-16.53
			c-0.06-4.98,1.37-6.78,6.15-8.01c19.98-5.15,34.69-21.9,37.12-42.44c1.86-15.75,3.57-31.52,5.33-47.29
			c0.34-3.02,0.63-6.05,0.95-9.16C168.54,55.26,131.44,55.26,94.18,55.26z M193.99,219.39c-29.42,0-58.66,0-87.86,0
			c0,8.56,0,16.97,0,25.35c29.37,0,58.57,0,87.86,0C193.99,236.27,193.99,227.9,193.99,219.39z M210.97,122.55
			c12.48-5.51,21.93-14.47,28.19-26.88c5.6-11.09,6.17-22.94,5.62-34.98c-0.14-3.13-2.91-5.48-6.12-5.52
			c-6.36-0.07-12.73-0.02-19.09-0.01c-0.32,0-0.64,0.15-0.92,0.21C216.09,77.83,213.53,100.16,210.97,122.55z M81.38,55.16
			c-6.58,0-13.07-0.03-19.55,0.01c-4.04,0.02-6.61,2.67-6.64,6.77c-0.03,2.94-0.05,5.87,0,8.81c0.3,18.23,7.37,33.17,21.77,44.49
			c3.78,2.97,7.91,5.4,12.07,7.04C86.49,100.03,83.96,77.77,81.38,55.16z"/>
		<path class="st2" d="M257.46,58.93c-0.49-1.59-0.84-3.25-1.51-4.77c-2.65-6.03-7.21-9.81-13.68-11.22
			c-0.4-0.09-0.78-0.25-1.18-0.39c5.42,0,10.84,0,16.37,0C257.46,48.02,257.46,53.48,257.46,58.93z"/>
		<path class="st2" d="M128.19,120.24c0.66-3.8,1.34-8.15,2.19-12.47c0.25-1.27-0.05-2.05-0.98-2.9c-2.89-2.64-5.68-5.39-8.53-8.08
			c-1.93-1.83-2.83-3.98-2.04-6.61c0.81-2.69,2.69-4.15,5.45-4.54c4.08-0.58,8.16-1.2,12.25-1.73c1.16-0.15,1.82-0.63,2.34-1.69
			c1.7-3.52,3.53-6.98,5.26-10.48c1.22-2.47,3.1-3.97,5.91-3.97c2.81,0,4.68,1.52,5.9,3.99c1.74,3.5,3.47,7.01,5.34,10.45
			c0.39,0.71,1.31,1.42,2.09,1.56c4.2,0.74,8.42,1.3,12.64,1.93c2.59,0.39,4.34,1.83,5.16,4.32c0.83,2.52,0.13,4.7-1.72,6.51
			c-2.96,2.88-6.01,5.66-8.91,8.59c-0.55,0.56-0.91,1.69-0.79,2.48c0.54,3.8,1.22,7.58,1.93,11.36c0.52,2.79-0.05,5.19-2.39,6.9
			c-2.26,1.65-4.68,1.54-7.12,0.27c-3.53-1.84-7.04-3.72-10.65-5.4c-0.84-0.39-2.18-0.37-3.03,0.03c-3.79,1.78-7.44,3.86-11.22,5.65
			C132.92,128.46,128.21,125.48,128.19,120.24z M150.36,88.17c-1.66,2.39-2.68,4.84-4.51,6.19c-1.82,1.33-4.46,1.54-7.05,2.34
			c4.84,2.98,5.98,7.26,4.09,12.72c4.83-3.8,9.46-3.59,14.28-0.08c-1.99-5.49-0.63-9.7,4.18-13.11
			C155.29,96.62,151.89,93.72,150.36,88.17z"/>
	</g>
</g>
<g id="medallas" class="st0">
	<g class="st1">
		<path class="st2" d="M258.62,37.87c2.59,1.89,2.84,2.89,1.39,5.91c-17.04,35.46-34.07,70.93-51.17,106.36
			c-0.86,1.79-0.77,3.02,0.29,4.69c26.64,42.13,1.72,97.94-47.43,106.32c-2.14,0.37-4.3,0.65-6.45,0.97c-3.5,0-7.01,0-10.51,0
			c-4.98-1-10.13-1.51-14.92-3.09c-26.47-8.73-42.93-26.79-48.52-54.12c-3.74-18.25,0.07-35.35,10.15-51
			c0.81-1.25,0.47-2.08-0.05-3.16C74.28,115.17,57.17,79.57,40.06,43.98c-1.54-3.21-1.32-4.2,1.31-6.11c19.56,0,39.13,0,58.69,0
			c0.86,1.13,1.96,2.15,2.56,3.4c12.76,26.43,25.47,52.87,38.14,79.35c0.71,1.48,1.47,1.94,3.12,1.86c4-0.18,8.02-0.2,12.01-0.01
			c1.82,0.09,2.65-0.4,3.44-2.05c12.62-26.41,25.31-52.79,38.04-79.15c0.6-1.25,1.7-2.27,2.56-3.4
			C219.5,37.87,239.06,37.87,258.62,37.87z M150.05,128.69c-34.81-0.09-63.41,28.43-63.5,63.32c-0.08,34.86,28.41,63.46,63.28,63.53
			c35.01,0.07,63.6-28.43,63.61-63.42C213.45,157.26,184.99,128.78,150.05,128.69z M252.36,44.55c-0.92-0.05-1.54-0.11-2.17-0.11
			c-5.69-0.01-11.38,0.05-17.07-0.04c-1.52-0.02-2.28,0.44-2.95,1.84c-13.59,28.39-27.23,56.76-40.87,85.13
			c-0.34,0.7-0.63,1.41-0.78,1.75c5.13,4.52,10.01,8.82,14.94,13.16C219.69,112.5,235.97,78.64,252.36,44.55z M110.22,134.08
			c-0.22-0.48-0.54-1.2-0.89-1.91c-13.22-27.52-26.55-55-39.56-82.62c-1.89-4-3.92-5.69-8.39-5.21c-4.44,0.47-8.96,0.1-13.79,0.1
			c16.47,34.25,32.76,68.14,48.99,101.9C101.18,142.2,105.61,138.22,110.22,134.08z M134.75,123.31c-0.25-0.54-0.57-1.25-0.91-1.96
			c-5.42-11.29-10.85-22.58-16.28-33.87c-6.59-13.72-13.18-27.44-19.81-41.14c-0.36-0.74-1.15-1.8-1.75-1.81
			c-7.05-0.13-14.11-0.08-21.53-0.08c13.93,28.97,27.72,57.66,41.37,86.04C122.29,128.04,128.46,125.7,134.75,123.31z M223.77,44.44
			c-6.52,0-12.58,0.06-18.63-0.04c-1.55-0.03-2.28,0.5-2.94,1.87c-12.02,25.11-24.09,50.2-36.14,75.3
			c-0.31,0.64-0.58,1.29-0.82,1.81c5.84,2.14,11.55,4.24,17.49,6.41C196.3,101.56,209.96,73.16,223.77,44.44z"/>
		<path class="st2" d="M185.12,185.49c-0.96,1.64-1.67,3.51-2.94,4.87c-3.03,3.25-6.27,6.32-9.53,9.35
			c-1.11,1.03-1.38,2.05-1.12,3.46c0.82,4.44,1.56,8.9,2.33,13.36c0.48,2.77-0.35,5.08-2.57,6.77c-2.23,1.7-4.73,1.89-7.21,0.63
			c-4.22-2.14-8.42-4.35-12.58-6.62c-1.08-0.59-1.91-0.59-3,0c-3.96,2.17-8,4.21-11.99,6.33c-2.69,1.43-5.34,1.54-7.81-0.34
			c-2.37-1.81-3.08-4.25-2.51-7.2c0.83-4.29,1.47-8.62,2.26-12.92c0.26-1.4,0.01-2.43-1.11-3.47c-3.26-3.03-6.39-6.2-9.58-9.3
			c-2.11-2.06-3-4.46-2.03-7.34c0.96-2.86,3.06-4.28,6.01-4.68c4.55-0.62,9.1-1.28,13.62-2.08c0.82-0.14,1.81-0.89,2.2-1.63
			c2.07-3.93,4-7.94,5.93-11.94c1.35-2.8,3.36-4.56,6.61-4.52c3.16,0.04,5.09,1.8,6.4,4.5c1.9,3.94,3.89,7.83,5.77,11.78
			c0.55,1.15,1.18,1.76,2.55,1.93c4.63,0.57,9.24,1.31,13.85,2.03C182.26,179.02,184.61,181.73,185.12,185.49z M132.54,218.15
			c1.02-0.47,1.61-0.71,2.17-1c4.2-2.2,8.43-4.34,12.56-6.65c1.94-1.08,3.62-1.05,5.53,0.03c3.56,2,7.21,3.83,10.82,5.73
			c1.14,0.6,2.27,1.2,3.83,2.02c-0.97-5.74-1.74-10.99-2.78-16.18c-0.48-2.37,0.16-3.97,1.83-5.64c3.75-3.76,7.3-7.71,10.85-11.5
			c0.23,0.08-0.01-0.05-0.27-0.08c-3.68-0.55-7.37-1.03-11.04-1.63c-8.56-1.4-6.6,0.14-10.37-7.27c-0.69-1.36-1.36-2.74-2.04-4.11
			c-1.15-2.32-2.29-4.63-3.59-7.27c-0.55,1-0.91,1.61-1.23,2.24c-2.07,4.18-4.2,8.33-6.17,12.56c-0.89,1.89-2.08,3.02-4.24,3.22
			c-2.68,0.26-5.34,0.74-8.01,1.14c-2.75,0.41-5.5,0.84-7.73,1.19c3.69,3.94,7.37,7.98,11.19,11.89c1.42,1.46,1.89,2.93,1.51,4.93
			C134.38,207.04,133.53,212.36,132.54,218.15z"/>
		<path class="st2" d="M106.23,224.86c-1.82-0.06-3.24-1.65-3.13-3.5c0.11-1.75,1.59-3.1,3.35-3.04c1.73,0.06,3.18,1.54,3.18,3.26
			C109.63,223.37,108.02,224.92,106.23,224.86z"/>
		<path class="st2" d="M193.65,224.46c-1.83-0.15-3.15-1.78-2.95-3.64c0.18-1.73,1.78-3.05,3.49-2.89c1.72,0.16,3.11,1.75,3.01,3.43
			C197.1,223.17,195.45,224.6,193.65,224.46z"/>
		<path class="st2" d="M120.86,239.33c-1.81-0.04-3.32-1.66-3.22-3.45c0.1-1.73,1.6-3.12,3.34-3.09c1.84,0.03,3.28,1.58,3.18,3.43
			C124.08,237.96,122.59,239.37,120.86,239.33z"/>
		<path class="st2" d="M123.78,148.51c-0.02,1.77-1.42,3.19-3.17,3.23c-1.81,0.03-3.38-1.52-3.35-3.32
			c0.03-1.79,1.64-3.31,3.44-3.22C122.44,145.28,123.8,146.74,123.78,148.51z"/>
		<path class="st2" d="M97.25,195.42c-1.78-0.05-3.32-1.72-3.2-3.48c0.11-1.74,1.59-3.07,3.36-3.04c1.88,0.04,3.25,1.52,3.15,3.42
			C100.46,194.08,98.97,195.47,97.25,195.42z"/>
		<path class="st2" d="M205.95,192.15c-0.01,1.77-1.65,3.34-3.41,3.27c-1.75-0.07-3.11-1.51-3.11-3.29c0-1.88,1.46-3.28,3.35-3.22
			C204.54,188.96,205.96,190.42,205.95,192.15z"/>
		<path class="st2" d="M106.18,166.29c-1.85,0.05-3.4-1.42-3.4-3.23c0-1.69,1.48-3.22,3.18-3.28c1.82-0.07,3.34,1.42,3.34,3.28
			C109.31,164.86,107.98,166.24,106.18,166.29z"/>
		<path class="st2" d="M101.68,202.53c0.06,1.78-1.5,3.38-3.29,3.38c-1.75-0.01-3.17-1.41-3.22-3.18c-0.05-1.82,1.23-3.22,3.02-3.32
			C100.06,199.31,101.61,200.7,101.68,202.53z"/>
		<path class="st2" d="M204.83,181.73c-0.05,1.75-1.49,3.19-3.22,3.19c-1.77,0.01-3.35-1.61-3.29-3.39
			c0.06-1.83,1.61-3.23,3.48-3.13C203.59,178.51,204.88,179.92,204.83,181.73z"/>
		<path class="st2" d="M182.73,235.9c-0.07,1.82-1.64,3.22-3.5,3.11c-1.79-0.11-3.07-1.51-3.01-3.33c0.06-1.86,1.62-3.29,3.45-3.15
			C181.38,232.66,182.8,234.21,182.73,235.9z"/>
		<path class="st2" d="M182.35,148.23c-0.01,1.81-1.56,3.27-3.41,3.21c-1.79-0.06-3.13-1.45-3.12-3.24
			c0.01-1.77,1.39-3.19,3.15-3.24C180.77,144.9,182.36,146.44,182.35,148.23z"/>
		<path class="st2" d="M101.23,215.57c-1.79-0.07-3.27-1.71-3.15-3.5c0.12-1.77,1.56-3.06,3.36-3.01c1.89,0.05,3.23,1.53,3.12,3.44
			C104.46,214.24,102.94,215.64,101.23,215.57z"/>
		<path class="st2" d="M201.92,212.37c-0.05,1.71-1.54,3.19-3.24,3.2c-1.81,0.01-3.29-1.53-3.25-3.37c0.04-1.89,1.52-3.24,3.42-3.14
			C200.62,209.16,201.97,210.61,201.92,212.37z"/>
		<path class="st2" d="M143.21,243.89c-0.04,1.8-1.67,3.33-3.43,3.23c-1.72-0.1-3.08-1.6-3.06-3.35c0.03-1.89,1.49-3.25,3.4-3.16
			C141.9,240.69,143.25,242.12,143.21,243.89z"/>
		<path class="st2" d="M150.05,136.22c1.85,0.03,3.27,1.54,3.18,3.4c-0.08,1.78-1.48,3.1-3.28,3.07c-1.88-0.03-3.27-1.5-3.18-3.39
			C146.84,137.54,148.27,136.19,150.05,136.22z"/>
		<path class="st2" d="M159.96,143.71c-1.8-0.06-3.26-1.66-3.16-3.48c0.1-1.78,1.52-3.06,3.33-3.02c1.89,0.04,3.24,1.51,3.14,3.42
			C163.17,142.37,161.68,143.77,159.96,143.71z"/>
		<path class="st2" d="M129.82,140.25c1.81-0.01,3.19,1.3,3.25,3.09c0.07,1.85-1.38,3.38-3.21,3.4c-1.83,0.01-3.3-1.51-3.26-3.35
			C126.65,141.59,128.01,140.26,129.82,140.25z"/>
		<path class="st2" d="M173.39,143.54c-0.03,1.75-1.45,3.18-3.19,3.2c-1.83,0.03-3.31-1.48-3.28-3.33c0.03-1.88,1.5-3.25,3.4-3.16
			C172.11,140.34,173.42,141.74,173.39,143.54z"/>
		<path class="st2" d="M112.71,151.67c1.9-0.02,3.31,1.39,3.28,3.29c-0.03,1.74-1.46,3.19-3.19,3.22c-1.8,0.03-3.31-1.51-3.28-3.35
			C109.55,153.02,110.9,151.69,112.71,151.67z"/>
		<path class="st2" d="M190.48,154.9c0,1.82-1.56,3.35-3.35,3.28c-1.72-0.07-3.12-1.54-3.12-3.29c0-1.89,1.44-3.28,3.35-3.22
			C189.15,151.73,190.48,153.1,190.48,154.9z"/>
		<path class="st2" d="M101.53,182.17c-0.04,1.74-1.49,3.19-3.21,3.21c-1.79,0.02-3.32-1.55-3.27-3.37
			c0.05-1.87,1.54-3.24,3.43-3.15C100.27,178.94,101.57,180.36,101.53,182.17z"/>
		<path class="st2" d="M101.26,175.26c-1.8-0.05-3.29-1.67-3.18-3.47c0.1-1.77,1.53-3.07,3.34-3.04c1.9,0.04,3.24,1.49,3.14,3.41
			C104.47,173.91,102.98,175.31,101.26,175.26z"/>
		<path class="st2" d="M190.48,229.33c0.02,1.82-1.52,3.37-3.31,3.32c-1.72-0.04-3.14-1.51-3.16-3.25c-0.02-1.8,1.3-3.19,3.09-3.26
			C188.99,226.07,190.46,227.46,190.48,229.33z"/>
		<path class="st2" d="M198.57,175.26c-1.82-0.05-3.23-1.62-3.13-3.48c0.1-1.8,1.49-3.07,3.31-3.03c1.88,0.05,3.28,1.56,3.16,3.42
			C201.79,173.9,200.27,175.31,198.57,175.26z"/>
		<path class="st2" d="M160.56,246.97c-1.86,0.04-3.34-1.43-3.31-3.28c0.02-1.77,1.4-3.16,3.18-3.19c1.89-0.04,3.32,1.39,3.3,3.27
			C163.7,245.57,162.35,246.94,160.56,246.97z"/>
		<path class="st2" d="M142.75,140.48c0.02,1.82-1.52,3.37-3.31,3.33c-1.71-0.03-3.15-1.51-3.18-3.24c-0.03-1.87,1.44-3.33,3.3-3.29
			C141.34,137.31,142.72,138.7,142.75,140.48z"/>
		<path class="st2" d="M193.62,165.92c-1.74-0.01-3.21-1.44-3.26-3.16c-0.05-1.78,1.51-3.34,3.32-3.33
			c1.86,0.02,3.28,1.52,3.21,3.39C196.82,164.6,195.41,165.93,193.62,165.92z"/>
		<path class="st2" d="M112.65,232.66c-1.8-0.07-3.24-1.68-3.12-3.5c0.11-1.79,1.53-3.06,3.34-3.01c1.88,0.05,3.23,1.55,3.12,3.44
			C115.88,231.32,114.36,232.72,112.65,232.66z"/>
		<path class="st2" d="M169.97,244.08c-1.8-0.11-3.19-1.75-3.05-3.58c0.15-1.78,1.59-3.03,3.4-2.94c1.87,0.09,3.21,1.63,3.05,3.51
			C173.23,242.79,171.66,244.18,169.97,244.08z"/>
		<path class="st2" d="M153.24,244.75c0.02,1.83-1.5,3.36-3.31,3.32c-1.72-0.04-3.15-1.5-3.18-3.24c-0.02-1.86,1.46-3.33,3.31-3.3
			C151.82,241.58,153.22,242.99,153.24,244.75z"/>
		<path class="st2" d="M204.93,202.17c0,1.83-1.53,3.35-3.33,3.29c-1.73-0.05-3.13-1.51-3.14-3.26c-0.01-1.89,1.42-3.29,3.32-3.24
			C203.59,199,204.93,200.37,204.93,202.17z"/>
		<path class="st2" d="M129.89,244.08c-1.7,0.03-3.2-1.4-3.28-3.14c-0.09-1.88,1.31-3.36,3.19-3.38c1.81-0.02,3.2,1.28,3.28,3.07
			C133.16,242.45,131.68,244.05,129.89,244.08z"/>
	</g>
</g>
<g id="pago" class="st0">
	<g class="st1">
		<g>
			<path class="st2" d="M215.57,28.39c2.58,1.39,3.38,3.55,3.37,6.46c-0.07,35.78-0.05,71.55-0.05,107.33c0,0.93,0,1.87,0,3.07
				c1.03,0,1.88,0,2.72,0c10.37,0,20.74,0,31.11,0c4.43,0,6.07,1.61,6.07,5.97c0.01,31.66,0.03,63.32-0.01,94.98
				c-0.02,14.73-10.76,25.39-25.55,25.4c-55.48,0.02-110.97,0.02-166.45,0c-14.87-0.01-25.54-10.73-25.54-25.65
				c-0.01-70.44,0.01-140.89-0.05-211.33c0-2.85,0.9-4.88,3.37-6.22c0.95,0,1.9,0,2.85,0c5.15,4.87,10.3,9.74,15.59,14.74
				c2.35-2.39,4.69-4.86,7.14-7.21c2.66-2.56,5.43-5.02,8.15-7.53c0.95,0,1.9,0,2.85,0c5.11,4.89,10.23,9.78,15.48,14.8
				c3.33-3.38,6.56-6.74,9.9-10c1.74-1.7,3.66-3.21,5.5-4.8c0.95,0,1.9,0,2.85,0c5.07,4.9,10.14,9.79,15.2,14.68
				c5.14-4.97,10.17-9.83,15.2-14.68c0.95,0,1.9,0,2.85,0c1.22,0.98,2.54,1.87,3.65,2.96c3.98,3.91,7.89,7.88,12.13,12.14
				c0.98-1.15,1.68-2.13,2.52-2.95c4.17-4.07,8.38-8.11,12.58-12.15c0.95,0,1.9,0,2.85,0c1.21,1,2.5,1.91,3.61,3
				c3.94,3.88,7.83,7.82,12.08,12.08c1.52-1.68,2.88-3.34,4.4-4.82c3.55-3.46,7.19-6.85,10.79-10.26
				C213.67,28.39,214.62,28.39,215.57,28.39z M214.67,262.1c-4.69-6.07-5.33-12.62-5.32-19.49c0.08-64.91,0.05-129.83,0.05-194.74
				c0-0.9,0-1.79,0-2.69c-0.23-0.1-0.46-0.2-0.69-0.31c-1.32,1.46-2.62,2.94-3.96,4.38c-6.81,7.27-7.93,7.31-14.76,0.1
				c-3.03-3.2-6.22-6.25-9.52-9.54c-4.29,4.32-8.39,8.48-12.53,12.61c-3.09,3.09-5.4,3.07-8.52-0.04
				c-4.14-4.13-8.27-8.27-12.88-12.88c-0.53,0.79-0.89,1.54-1.44,2.1c-3.33,3.39-6.7,6.73-10.06,10.09
				c-4.08,4.08-5.86,4.09-9.87,0.08c-1.79-1.79-3.6-3.56-5.37-5.38c-2.13-2.19-4.23-4.41-6.44-6.71c-4.64,4.66-8.91,9-13.25,13.27
				c-2.36,2.32-4.93,2.3-7.34,0.05c-0.69-0.65-1.35-1.34-2.02-2.01c-3.68-3.69-7.35-7.38-11.14-11.18
				c-4.27,4.28-8.34,8.37-12.42,12.45c-3.31,3.3-5.53,3.31-8.86-0.08c-2.36-2.4-4.62-4.9-6.93-7.35c-0.22,0.13-0.45,0.27-0.67,0.4
				c0,0.83,0,1.67,0,2.5c0,65.86,0,131.73,0,197.59c0,10.57,6.22,16.76,16.84,16.76c48.05,0,96.1,0,144.16,0
				C212.53,262.1,213.31,262.1,214.67,262.1z M218.89,154.84c0,1.09,0,1.95,0,2.81c0,15.74,0,31.49,0,47.23
				c0,14-0.05,28.01,0.02,42.01c0.05,8.9,7.43,15.73,16.22,15.17c8.05-0.51,14.14-7.15,14.15-15.6c0.03-29.99,0.01-59.97,0.01-89.96
				c0-0.53-0.07-1.06-0.12-1.67C239.08,154.84,229.14,154.84,218.89,154.84z"/>
			<path class="st2" d="M142.58,197.5c-12.35,0-24.69,0.02-37.04-0.01c-4.08-0.01-6.7-3.62-4.74-6.77c0.79-1.26,2.6-2.22,4.13-2.61
				c1.79-0.45,3.77-0.11,5.67-0.11c22.55,0,45.11,0,67.66,0c0.71,0,1.43-0.04,2.14,0.02c2.62,0.23,4.44,2.13,4.48,4.65
				c0.04,2.61-1.82,4.7-4.56,4.79c-3.8,0.12-7.6,0.04-11.39,0.04C160.14,197.5,151.36,197.5,142.58,197.5z"/>
			<path class="st2" d="M142.58,228.85c-12.35,0-24.69,0.02-37.04-0.01c-4.08-0.01-6.7-3.62-4.73-6.77c0.79-1.26,2.6-2.22,4.13-2.61
				c1.79-0.45,3.77-0.11,5.67-0.11c22.55,0,45.11,0,67.66,0c0.71,0,1.43-0.04,2.14,0.02c2.62,0.23,4.44,2.13,4.48,4.65
				c0.04,2.61-1.82,4.7-4.56,4.79c-3.8,0.12-7.6,0.04-11.39,0.04C160.14,228.85,151.36,228.85,142.58,228.85z"/>
			<path class="st2" d="M142.5,166.15c-11.95,0-23.9,0-35.85,0c-0.79,0-1.59,0.05-2.37-0.07c-2.39-0.35-4.16-2.46-4.1-4.79
				c0.06-2.25,1.79-4.22,4.08-4.57c0.7-0.11,1.42-0.07,2.13-0.07c24.14,0,48.27,0,72.41,0c0.63,0,1.27-0.03,1.9,0.05
				c2.45,0.32,4.17,2.27,4.17,4.69c0,2.42-1.71,4.38-4.16,4.7c-0.7,0.09-1.42,0.05-2.13,0.05
				C166.56,166.15,154.53,166.15,142.5,166.15z"/>
			<path class="st2" d="M79.84,166.13c-2.56-0.06-4.62-2.2-4.6-4.78c0.02-2.58,2.12-4.68,4.68-4.69c2.67-0.01,4.78,2.19,4.7,4.9
				C84.54,164.16,82.41,166.19,79.84,166.13z"/>
			<path class="st2" d="M84.62,192.67c0.04,2.61-1.96,4.73-4.54,4.81c-2.65,0.08-4.86-2.1-4.84-4.77c0.02-2.58,2.12-4.69,4.68-4.7
				C82.49,188,84.58,190.06,84.62,192.67z"/>
			<path class="st2" d="M79.98,228.84c-2.56,0.03-4.69-2.05-4.74-4.63c-0.06-2.58,1.97-4.74,4.53-4.84c2.67-0.1,4.85,2.04,4.85,4.74
				C84.61,226.72,82.56,228.81,79.98,228.84z"/>
		</g>
		<text transform="matrix(1 0 0 1 86.8429 115.5108)" class="st2 st7 st8">PAGO</text>
	</g>
</g>
<g id="timer" class="st0">
	<g class="st1">
		<path class="st2" d="M175.56,20.54c0.66,0.33,1.31,0.67,1.98,0.97c4.42,2.04,6.84,6.45,6.2,11.35c-0.59,4.54-4.04,8.27-8.67,8.97
			c-2.64,0.4-5.36,0.33-8.25,0.49c0,1.55,0,3.1,0,4.89c24.85,3.25,46.67,13.29,65.56,30.5c1.55-1.63,2.95-3.18,4.43-4.65
			c1.49-1.48,3.05-2.9,4.76-4.51c-2.25-2.01-4.29-3.84-6.08-5.43c6.51-6.52,12.53-12.56,18.39-18.43
			c5.72,5.72,11.72,11.72,17.6,17.59c-5.87,5.87-11.88,11.87-18.26,18.26c-1.66-2-3.43-4.13-5.13-6.18
			c-3.38,3.39-6.34,6.37-9.48,9.52c0.47,0.57,1.04,1.27,1.63,1.95c19.85,22.85,29.79,49.43,29.25,79.68
			c-0.98,55.03-41.38,102.19-95.56,112.04c-15.2,2.76-30.33,2.51-45.43-0.67c-0.58-0.12-1.15-0.26-1.71-0.43
			c-2.33-0.74-3.66-2.87-3.17-5.03c0.53-2.34,2.66-3.68,5.18-3.32c6.08,0.85,12.16,1.69,18.25,2.5c0.65,0.09,1.32,0.01,2.34,0.01
			c0-2.69-0.08-5.36,0.02-8.02c0.13-3.45,2.85-5.46,5.79-4.36c1.86,0.7,2.78,2.1,2.8,4.08c0.02,2.68,0,5.36,0,7.99
			c8.75,1.51,34.07-5.23,45.07-11.97c-1.22-2.15-2.46-4.31-3.68-6.48c-1.59-2.84-1.18-5.23,1.09-6.61c2.26-1.37,4.66-0.55,6.32,2.2
			c1.22,2.02,2.38,4.06,3.58,6.09c0.08,0.14,0.25,0.22,0.38,0.32c10.47-5.45,27.3-22.26,33.27-33.37c-2.14-1.23-4.3-2.46-6.43-3.72
			c-2.81-1.66-3.65-3.98-2.31-6.29c1.32-2.28,3.8-2.76,6.58-1.22c2.13,1.18,4.22,2.43,6.65,3.83c7.5-14.36,11.6-29.41,12.26-45.83
			c-2.68,0-5.18,0.02-7.67-0.01c-3.15-0.03-5.15-1.75-5.12-4.33c0.03-2.57,2.05-4.24,5.21-4.27c2.43-0.02,4.85,0,7.56,0
			c-0.58-16.31-4.75-31.34-12.2-45.79c-2.47,1.4-4.7,2.71-6.97,3.95c-2.62,1.43-5.07,0.86-6.33-1.42c-1.22-2.2-0.5-4.47,1.98-5.99
			c2.22-1.35,4.48-2.63,6.92-4.06c-8.71-13.64-19.72-24.65-33.46-33.49c-1.44,2.45-2.77,4.84-4.23,7.14
			c-1.79,2.82-5.32,3.09-7.19,0.61c-1.2-1.59-1.18-3.28-0.22-4.97c1.29-2.27,2.6-4.52,3.89-6.76c-5.84-5.58-34.76-13.54-44.94-12.28
			c0,2.46,0.03,4.96-0.01,7.47c-0.05,3.03-1.69,4.93-4.21,4.97c-2.5,0.03-4.31-1.92-4.39-4.85c-0.07-2.51-0.01-5.03-0.01-8.15
			c-5.14,0.58-10.03,1.09-14.91,1.7c-1.75,0.22-3.47,0.68-5.2,1.03c-2.82,0.56-5.11-0.75-5.66-3.24c-0.52-2.34,0.97-4.56,3.69-5.12
			c4.36-0.89,8.74-1.62,13.28-2.45c0-1.42,0-2.89,0-4.76c-1.63,0-3.28,0.01-4.93,0c-6.49-0.03-10.93-3.34-11.98-8.99
			c-0.99-5.32,2.45-11,8.03-12.33c0.15-0.03,0.26-0.2,0.39-0.31C146.56,20.54,161.06,20.54,175.56,20.54z M149.33,46.3
			c3.06,0,5.72,0,8.71,0c0-4.29,0-8.44,0-12.78c1.42,0,2.5,0,3.59,0c3.7-0.01,7.41,0.02,11.11-0.03c1.42-0.02,2.7-0.7,2.33-2.24
			c-0.2-0.83-1.45-1.45-2.31-2.05c-0.28-0.2-0.82-0.04-1.24-0.04c-11.87,0-23.73,0-35.6,0c-0.59,0-1.34-0.21-1.73,0.08
			c-0.79,0.58-1.79,1.36-1.92,2.18c-0.09,0.57,1.03,1.59,1.82,1.95c0.78,0.35,1.82,0.15,2.74,0.15c4.09,0.01,8.18,0,12.51,0
			C149.33,37.93,149.33,42.02,149.33,46.3z M248.22,61.78c1.94,2.26,3.72,4.33,5.15,6c2.16-1.92,4.19-3.74,5.83-5.2
			c-1.92-2.14-3.73-4.17-5.52-6.17C251.66,58.38,249.76,60.26,248.22,61.78z"/>
		<path class="st2" d="M156.12,184.49c-6.7-0.01-12.42-4.13-14.55-10.48c-2.15-6.42-0.09-13.13,5.54-17.28
			c9.02-6.64,18.13-13.15,27.21-19.72c9.07-6.57,18.15-13.13,27.22-19.7c0.34-0.25,0.68-0.49,1.03-0.72
			c2.22-1.47,4.38-1.39,5.96,0.23c1.6,1.64,1.69,3.72,0.09,5.97c-3.22,4.53-6.51,9.01-9.76,13.52
			c-9.87,13.65-19.73,27.3-29.61,40.94C165.65,182.22,161.45,184.5,156.12,184.49z M185.2,140.29c-0.09-0.09-0.18-0.18-0.27-0.27
			c-1.81,1.3-3.61,2.6-5.42,3.91c-9.06,6.55-18.12,13.09-27.16,19.68c-2.8,2.04-3.66,5.03-2.51,8.01c1.09,2.82,4.01,4.86,7.01,4.09
			c1.93-0.49,4.03-1.84,5.22-3.43c7.5-10.03,14.76-20.24,22.09-30.39C184.54,141.37,184.86,140.82,185.2,140.29z"/>
		<path class="st2" d="M73.9,171.64c13.15,0,26.3-0.01,39.45,0.02c1.15,0,2.66-0.09,3.38,0.55c1.08,0.96,2.28,2.59,2.18,3.83
			c-0.11,1.35-1.48,2.81-2.65,3.79c-0.7,0.58-2.09,0.43-3.17,0.43c-26.13,0.02-52.26,0.02-78.39,0.02c-0.42,0-0.84,0.01-1.26-0.01
			c-2.97-0.13-4.91-1.84-4.91-4.35c0-2.52,1.91-4.25,4.92-4.26c9.27-0.04,18.54-0.01,27.82-0.02
			C65.48,171.64,69.69,171.64,73.9,171.64z"/>
		<path class="st2" d="M82.54,141.4c10.44,0,20.89-0.07,31.33,0.08c1.49,0.02,3.39,0.77,4.33,1.85c0.77,0.89,0.93,3.07,0.36,4.14
			c-0.63,1.17-2.34,2.25-3.7,2.43c-2.82,0.37-5.71,0.12-8.58,0.12c-18.02,0-36.05,0-54.07,0c-0.67,0-1.35,0.03-2.02-0.01
			c-2.6-0.17-4.37-1.93-4.37-4.31c0-2.38,1.78-4.22,4.38-4.26c4.46-0.08,8.93-0.03,13.39-0.03C69.91,141.4,76.23,141.4,82.54,141.4z
			"/>
		<path class="st2" d="M86.78,210.42c-8.67,0-17.33,0-26-0.01c-0.92,0-1.86,0.02-2.77-0.14c-2.19-0.39-3.41-1.79-3.49-3.99
			c-0.08-2.19,0.99-3.72,3.16-4.26c0.96-0.24,2-0.25,3-0.25c17.42-0.01,34.84-0.02,52.25,0c1.08,0,2.22,0.02,3.24,0.32
			c2.02,0.6,2.99,2.13,2.9,4.21c-0.09,2.09-1.22,3.47-3.28,3.92c-0.89,0.19-1.84,0.17-2.76,0.18
			C104.28,210.43,95.53,210.42,86.78,210.42z"/>
		<path class="st2" d="M93.15,119.76c-6.83,0-13.65,0.01-20.48-0.01c-3.37-0.01-5.38-1.7-5.3-4.38c0.08-2.56,2.08-4.22,5.27-4.23
			c13.73-0.02,27.47-0.02,41.2,0c3.37,0,5.31,1.7,5.25,4.45c-0.06,2.64-1.91,4.15-5.22,4.16
			C106.96,119.78,100.05,119.76,93.15,119.76z"/>
		<path class="st2" d="M99.75,240.61c-4.8,0-9.59,0.02-14.39-0.01c-3.15-0.02-4.89-1.51-4.97-4.13c-0.08-2.72,1.76-4.46,4.93-4.47
			c9.59-0.03,19.19-0.03,28.78,0c3.17,0.01,5.05,1.75,4.98,4.43c-0.06,2.57-1.88,4.15-4.95,4.17
			C109.35,240.63,104.55,240.61,99.75,240.61z"/>
		<path class="st2" d="M104.23,89.6c-3.37,0-6.74,0.04-10.11-0.01c-3.31-0.05-5.1-1.63-5.1-4.33c0-2.7,1.79-4.28,5.12-4.31
			c6.66-0.05,13.32-0.05,19.98,0c3.12,0.03,4.92,1.62,4.98,4.19c0.07,2.67-1.79,4.37-5,4.43C110.81,89.65,107.52,89.6,104.23,89.6z"
			/>
	</g>
</g>
<g id="entrenamiento" class="st0">
	<g class="st1">
		<path class="st2" d="M280.84,129.64c-1.38,2.41-3.47,3.19-6.2,3.07c-3.63-0.17-7.28-0.04-11.22-0.04c0,1.98,0.01,3.74,0,5.51
			c-0.06,11.67-9.48,18.66-20.6,15.27c-0.31-0.09-0.63-0.16-1.29-0.31c0,2.18,0.05,4.19-0.01,6.2c-0.27,9.55-7.99,16.94-17.59,16.87
			c-9.39-0.07-17.06-7.59-17.19-17.03c-0.11-7.83-0.03-15.67-0.03-23.51c0-0.91,0-1.83,0-2.86c-4.41,0-8.55,0-12.96,0
			c-0.06,0.71-0.17,1.44-0.17,2.16c-0.02,4.09-0.11,8.18,0.02,12.26c0.19,5.97-1.64,11.19-5.33,15.85c-2.17,2.74-4.31,5.5-6.25,8.4
			c-0.79,1.18-1.38,2.75-1.38,4.15c-0.08,22.32-0.06,44.63-0.06,66.95c0,1.02,0,2.03,0,3.28c-2.88,0-5.63,0-8.72,0
			c0-0.93,0-1.83,0-2.74c0-23.17,0.02-46.34-0.03-69.5c-0.01-2.25,0.56-4.09,1.97-5.86c2.86-3.6,5.54-7.34,8.3-11.02
			c1.84-2.46,2.79-5.21,2.77-8.32c-0.04-5.11-0.01-10.22-0.01-15.75c-0.91,0-1.71,0-2.52,0c-11.24,0-22.49-0.04-33.73,0.05
			c-1.14,0.01-2.47,0.52-3.38,1.23c-2.84,2.21-5.99,3.11-9.52,3.02c-2.49-0.06-4.98-0.01-7.62,0.54c7.41,2.74,14.43,5.69,19,12.48
			c4.41,6.57,7.11,13.63,7.2,21.92c-2.64,0-5.02,0.13-7.36-0.1c-0.55-0.05-1.3-1.32-1.39-2.1c-0.64-5.55-2.63-10.54-5.9-15.03
			c-2.27-3.12-5.19-5.35-8.93-6.47c-2.28-0.68-4.52-1.48-6.78-2.24c-3.75-1.26-4.48-2.29-4.49-6.35c0-1.7,0-3.41,0-5.11
			c0.01-5,1.33-6.29,6.43-6.3c3.49-0.01,6.98,0.03,10.48-0.01c2.91-0.04,4.81-1.67,4.91-4.11c0.09-2.32-1.81-4.46-4.62-4.51
			c-8.5-0.13-17.01-0.05-25.76-0.05c-0.06,0.96-0.14,1.77-0.14,2.59c-0.01,8.01,0.03,16.01-0.02,24.02
			c-0.03,4.32,1.42,7.95,4.54,10.97c3.67,3.55,7.35,7.11,10.79,10.88c1.09,1.2,2.02,3.08,2.03,4.66c0.13,23.85,0.09,47.7,0.08,71.55
			c0,0.5-0.09,1-0.16,1.67c-2.74,0-5.42,0-8.55,0c0-0.96,0-1.94,0-2.92c0-22.23-0.02-44.46,0.03-66.69c0-1.83-0.41-3.18-1.8-4.48
			c-3.12-2.9-6.05-5.99-9.06-9c-4.44-4.44-6.58-9.83-6.6-16.09c-0.01-4.58,0-9.16,0-13.9c-2.96,0-5.71,0-8.71,0
			c0,8.19,0.03,16.26-0.02,24.33c-0.01,1.86-0.09,3.76-0.49,5.57c-1.91,8.7-10,14.34-19.04,13.39c-8.4-0.88-15.04-8.18-15.26-16.82
			c-0.05-1.95-0.01-3.91-0.01-6.19c-6.41,2.21-12.19,1.69-17.19-2.97c-5.06-4.72-4.9-10.91-4.66-17.48c-3.79,0-7.41,0-11.03,0
			c-5.21,0-6.43-1.23-6.43-6.49c0-7.67-0.01-15.33,0.01-23c0.01-3.9,1.48-5.35,5.43-5.38c3.9-0.03,7.8-0.01,11.98-0.01
			c0-2.03-0.01-3.8,0-5.56c0.05-11.69,9.44-18.65,20.57-15.27c0.32,0.1,0.65,0.13,1.32,0.27c0-2.14-0.05-4.14,0.01-6.14
			c0.25-9.39,7.93-16.91,17.31-16.97c9.43-0.06,17.32,7.58,17.46,17.08c0.12,7.83,0.03,15.67,0.04,23.51c0,0.92,0,1.84,0,2.92
			c5.88,0,11.54,0,17.42,0c-0.35-6.07,0.47-11.6,5.97-15.19c4.81-3.15,10.23-2.78,15.82,1.12c5.68-4.21,11.48-4.45,17.44-0.01
			c5.75-4.26,11.64-4.41,17.46-0.02c9.59-7.56,23.97-0.97,22.01,14.04c5.66,0,11.3,0,17.3,0c0-1.07,0-2.13,0-3.2
			c0-7.58-0.05-15.16,0.02-22.74c0.08-9.39,6.89-16.63,16.3-17.45c8.51-0.75,16.61,5.46,18.2,14.23c0.51,2.81,0.33,5.75,0.47,8.89
			c6.32-2.37,12.1-1.64,17.08,3.02c5.05,4.72,4.82,10.96,4.6,17.48c3.92,0,7.64,0.12,11.35-0.04c2.6-0.12,4.62,0.61,6.1,2.77
			C280.84,110.22,280.84,119.93,280.84,129.64z M67.17,115.33c0,14.4-0.03,28.79,0.01,43.19c0.01,5.26,3.75,9.01,8.75,8.97
			c4.86-0.03,8.62-3.78,8.63-8.87c0.04-28.96,0.05-57.92-0.07-86.88c-0.01-1.89-0.88-4.02-1.97-5.61c-2.09-3.04-6.15-3.99-9.62-2.76
			c-3.43,1.22-5.71,4.39-5.72,8.27C67.15,86.2,67.17,100.77,67.17,115.33z M232.84,115.08c0-14.31,0.01-28.62-0.01-42.93
			c-0.01-4.58-2.49-7.96-6.47-8.97c-5.85-1.49-10.92,2.68-10.93,9.08c-0.02,19.76-0.01,39.52-0.01,59.28c0,8.94,0,17.89,0,26.83
			c0,3.98,1.76,6.91,5.42,8.48c5.8,2.48,11.95-1.79,11.98-8.33C232.87,144.04,232.83,129.56,232.84,115.08z M45.3,114.81
			c0,8-0.06,16.01,0.02,24.01c0.04,4.03,2.75,6.77,6.43,6.83c3.71,0.06,6.63-2.62,6.65-6.6c0.09-15.92,0.06-31.84,0.01-47.76
			c-0.01-2.77-1.36-4.9-3.96-6.06c-4.49-1.99-9.09,1.28-9.14,6.59C45.24,99.49,45.3,107.15,45.3,114.81z M254.71,115.34
			c0-7.75-0.01-15.5,0-23.24c0-2.42-0.63-4.56-2.65-6.06c-2.09-1.55-4.38-1.83-6.74-0.69c-2.55,1.24-3.74,3.42-3.75,6.19
			c-0.04,6.73-0.02,13.45-0.02,20.18c0,8.94-0.04,17.88,0.02,26.82c0.03,4.82,3.54,7.83,7.93,6.99c3.18-0.61,5.18-3.3,5.2-7.19
			C254.74,130.66,254.71,123,254.71,115.34z M150.36,123.82c18.66,0,37.36,0,56.19,0c0-5.78,0-11.43,0-17.14
			c-5.82,0-11.47,0-17.11,0c-0.98,10.81-12.13,16.86-22.08,9.69c-5.36,3.89-10.86,4.35-16.53,0.51c-0.39-0.26-1.36-0.19-1.69,0.11
			c-0.34,0.32-0.4,1.16-0.27,1.7C149.27,120.35,149.81,121.96,150.36,123.82z M111.36,110.8c-0.3-1.59-0.54-2.88-0.76-4.07
			c-5.9,0-11.53,0-17.08,0c0,5.85,0,11.48,0,17.07c2.9,0,5.58,0,8.2,0c0.12-0.31,0.23-0.46,0.23-0.61c0.03-2.21,0.04-4.41,0.06-6.62
			c0.03-4.29,1.51-5.75,5.88-5.77C108.96,110.79,110.04,110.8,111.36,110.8z M128.13,99.92c0-2.21,0.08-4.43-0.02-6.64
			c-0.12-2.46-1.7-4.03-3.98-4.17c-2.38-0.15-4.47,1.35-4.57,3.82c-0.2,4.67-0.2,9.36,0.01,14.03c0.11,2.45,2.25,3.96,4.6,3.8
			c2.25-0.16,3.83-1.75,3.94-4.21C128.21,104.35,128.13,102.13,128.13,99.92z M171.87,99.89C171.87,99.89,171.87,99.89,171.87,99.89
			c0.01,2.21-0.07,4.43,0.03,6.64c0.11,2.47,1.66,4.07,3.91,4.24c2.35,0.18,4.51-1.32,4.62-3.76c0.22-4.67,0.21-9.36,0.02-14.03
			c-0.1-2.48-2.17-3.99-4.55-3.86c-2.37,0.13-3.92,1.76-4.02,4.39C171.8,95.63,171.87,97.76,171.87,99.89z M163.11,100.09
			C163.11,100.09,163.11,100.09,163.11,100.09c-0.01-2.13,0.07-4.26-0.03-6.38c-0.14-2.89-1.86-4.62-4.39-4.61
			c-2.54,0.01-4.22,1.76-4.28,4.68c-0.08,4.08-0.08,8.17,0,12.25c0.06,2.95,1.7,4.7,4.22,4.74c2.63,0.05,4.34-1.75,4.46-4.81
			C163.18,104,163.11,102.05,163.11,100.09z M145.59,100.02c0-2.21,0.09-4.43-0.02-6.63c-0.13-2.59-1.8-4.22-4.14-4.29
			c-2.46-0.07-4.38,1.55-4.47,4.24c-0.15,4.42-0.15,8.85,0.01,13.26c0.09,2.57,1.93,4.15,4.28,4.17c2.47,0.02,4.18-1.63,4.33-4.37
			C145.68,104.28,145.59,102.15,145.59,100.02z M28.1,106.63c0,5.95,0,11.58,0,17.16c2.91,0,5.59,0,8.31,0c0-5.81,0-11.45,0-17.16
			C33.55,106.63,30.86,106.63,28.1,106.63z M263.53,123.81c2.98,0,5.66,0,8.45,0c0-5.78,0-11.42,0-17.11c-2.9,0-5.64,0-8.45,0
			C263.53,112.47,263.53,118.05,263.53,123.81z"/>
	</g>
</g>
<g id="asistencia" class="st0">
	<g class="st1">
		<path class="st2" d="M277.35,83.82c-1.11,3.5-3.44,6.1-5.99,8.65c-40.41,40.35-80.79,80.73-121.14,121.14
			c-3.44,3.44-7.27,5.72-12.18,4.48c-2.3-0.58-4.77-1.76-6.43-3.41c-22.02-21.82-43.92-43.75-65.8-65.71
			c-5.22-5.24-5.11-12.4,0.12-17.72c5.17-5.26,10.42-10.45,15.64-15.66c6.41-6.4,13.05-6.38,19.52,0.08
			c12.37,12.36,24.73,24.73,37.08,37.11c0.64,0.64,1.16,1.4,2.46,2.98c0.72-1.26,1.03-2.2,1.65-2.82
			c31.92-31.96,63.86-63.9,95.8-95.84c6.77-6.77,13.28-6.78,20.04-0.04c4.34,4.33,8.63,8.72,13.03,12.99
			c2.63,2.56,5.05,5.21,6.2,8.79C277.35,80.51,277.35,82.17,277.35,83.82z"/>
		<path class="st2" d="M22.68,149.97c0-21.47-0.08-42.94,0.03-64.41c0.1-19.97,14.21-37.61,33.67-42.16
			c3.28-0.77,6.72-1.2,10.09-1.21c42.61-0.08,85.22-0.06,127.83-0.04c5.86,0,11.53,1.09,16.92,3.46c4.26,1.88,4.97,5.55,1.72,8.89
			c-2.2,2.26-4.45,4.46-6.68,6.69c-1.53,1.53-3.22,2.05-5.42,1.48c-1.98-0.51-4.09-0.81-6.13-0.81
			c-42.78-0.04-85.55-0.09-128.33,0.01C54.84,61.9,45.26,69.9,42.86,81.03c-0.47,2.17-0.59,4.44-0.59,6.67
			c-0.03,41.53-0.04,83.07-0.02,124.6c0.01,13.12,7.86,23.12,19.96,25.44c1.86,0.36,3.79,0.4,5.69,0.4
			c41.7,0.02,83.4-0.15,125.09,0.11c14.33,0.09,24.27-10.61,25.45-21.16c0.18-1.56,0.21-3.14,0.21-4.71
			c0.02-12.1,0.04-24.21-0.02-36.31c-0.01-2.24,0.67-3.97,2.28-5.52c2.93-2.81,5.76-5.73,8.63-8.6c1.59-1.6,3.39-2.32,5.62-1.42
			c2.2,0.89,3.13,2.56,3.12,4.87c-0.07,17.41,0.3,34.83-0.31,52.22c-0.7,20.06-18.55,38.1-38.51,39.85
			c-2.72,0.24-5.46,0.36-8.19,0.36c-41.28,0.02-82.57-0.11-123.85,0.06c-24.49,0.1-40.2-18.19-43.46-33.42
			c-0.81-3.78-1.23-7.71-1.25-11.57C22.61,191.91,22.68,170.94,22.68,149.97z"/>
	</g>
</g>
<g id="face" class="st0">
	<g class="st1">
		<path class="st2" d="M140.91,0.18c6.24,0,12.48,0,18.72,0c2.11,0.25,4.23,0.52,6.34,0.76c25.95,2.95,49.75,11.69,70.94,27.02
			c32.81,23.73,53.01,55.59,60.68,95.34c1.1,5.7,1.62,11.51,2.41,17.27c0,6.24,0,12.48,0,18.72c-0.18,0.94-0.44,1.87-0.52,2.82
			c-2.91,34.02-15.44,64.17-38.98,88.76c-41.96,43.84-93.08,58.8-151.76,42.61c-43.43-11.98-75.06-39.62-94.02-80.43
			c-20.43-43.98-19.66-88.45,2.67-131.56C39.85,38.09,76.02,12.14,123.87,2.55C129.48,1.43,135.22,0.96,140.91,0.18z M190,68.54
			c-0.52-0.12-0.88-0.27-1.25-0.27c-9.35-0.02-18.72-0.35-28.06,0.03c-17.49,0.71-28.8,10.05-32.48,26.53
			c-0.78,3.49-0.99,7.14-1.11,10.72c-0.18,5.45-0.11,10.91-0.02,16.37c0.03,1.87-0.53,2.6-2.48,2.55
			c-4.09-0.11-8.18,0.02-12.28-0.05c-1.67-0.03-2.48,0.4-2.47,2.27c0.07,8.77,0.06,17.54,0.01,26.31c-0.01,1.64,0.59,2.25,2.22,2.23
			c3.7-0.07,7.4-0.02,11.11-0.02c3.85,0,3.86,0.01,3.86,3.79c0,26.6,0.03,53.2-0.05,79.8c-0.01,2.48,0.54,3.38,3.22,3.34
			c9.94-0.16,19.88-0.06,29.81-0.07c0.94,0,1.89-0.12,3.1-0.2c0-1.52,0-2.77,0-4.02c0-26.5,0.03-53.01-0.05-79.51
			c-0.01-2.37,0.6-3.25,3.09-3.18c6.04,0.16,12.08-0.04,18.12,0.1c2.37,0.06,3.55-0.4,3.53-3.12c-0.02-2.81,0.55-5.61,0.84-8.42
			c0.63-6.27,1.24-12.55,1.9-19.28c-1.38,0-2.42,0-3.45,0c-7.11,0-14.23-0.06-21.34,0.04c-2.03,0.03-2.75-0.6-2.68-2.66
			c0.14-3.89,0.04-7.79,0.04-11.69c0-10.51,1.49-12,11.97-12c4.93,0,9.86,0,14.88,0C190,87.99,190,78.29,190,68.54z"/>
	</g>
</g>
<g id="Layer_19">
	<g>
		<path class="st2" d="M159.31,299.94c-6.25,0-12.49,0-18.74,0c-0.75-0.16-1.5-0.42-2.27-0.47c-20.02-1.5-39.01-6.76-56.72-16.19
			C38.3,260.21,11.97,224.44,2.37,176.4c-1.12-5.61-1.59-11.35-2.37-17.02c0-6.44,0-12.89,0-19.33c0.17-0.65,0.44-1.29,0.49-1.95
			c1.55-20.12,6.87-39.2,16.41-56.96C40,38.14,75.7,12.01,123.51,2.43c5.62-1.13,11.37-1.6,17.06-2.37c6.25,0,12.49,0,18.74,0
			c2.12,0.25,4.24,0.52,6.36,0.76c26.01,2.96,49.9,11.67,71.09,27.11c36.44,26.55,57.43,62.37,62.34,107.17
			c3.23,29.46-2.16,57.63-16.17,83.8c-23.02,42.99-58.73,69.16-106.56,78.66C170.74,298.68,165,299.16,159.31,299.94z
			 M148.56,123.98c-28.98-1.87-52.26-14.11-71.09-35.91c-4.41,8.1-5.45,16.19-3.73,24.71c1.72,8.54,6.58,15.14,13.28,20.59
			c-0.18,0.3-0.36,0.61-0.54,0.91c-4.53-1.27-9.06-2.53-13.79-3.86c0.09,7.74,2.42,14.74,7.24,20.97c4.83,6.24,11.32,10,18.78,12.4
			c-0.09,0.3-0.19,0.6-0.28,0.9c-4.42,0-8.84,0-13.86,0c5.93,14.58,16.2,22.4,32.11,24.02c-15.06,11.33-31.34,15.65-49.29,14.68
			c0.68,0.77,1.3,1.21,1.96,1.59c22.51,12.99,46.6,16.27,71.8,10.94c46.6-9.85,74.11-51.76,75.47-91.76
			c0.2-5.91,1.4-10.04,6.32-13.69c4.08-3.03,7.11-7.48,10.61-11.3c-0.22-0.24-0.43-0.47-0.65-0.71c-1.9,0.67-3.79,1.39-5.71,1.98
			c-1.95,0.6-3.94,1.12-5.93,1.57c-1.89,0.43-3.81,0.72-6.32,1.18c9.24-8.06,13.19-13.43,13.69-18.53
			c-1.05,0.54-1.95,1.12-2.93,1.49c-5.38,2.01-10.74,4.06-16.19,5.84c-0.98,0.32-2.68-0.22-3.49-0.97
			c-15.29-14.07-38.93-12.02-51.4,4.59C148.37,103.93,146.85,113.33,148.56,123.98z"/>
	</g>
</g>
</svg>
