<!-- Generator: Adobe Illustrator 22.0.1, SVG Export Plug-In  -->
<svg version="1.1"
   xmlns="http://www.w3.org/2000/svg" xmlns:xlink="http://www.w3.org/1999/xlink" xmlns:a="http://ns.adobe.com/AdobeSVGViewerExtensions/3.0/"
   x="0px" y="0px" width="38.9px" height="61px" viewBox="0 0 38.9 61" style="enable-background:new 0 0 38.9 61;"
   xml:space="preserve">
<style type="text/css">
  .st0{fill:#FF4217;}
</style>
<defs>
</defs>
<g>
  <g>
    <path class="st0" d="M0.6,47.7l4.3,3.1l2,6.2c0.2,0.6,0.8,1,1.4,1h6.4l3.7,2.7c0.3,0.2,0.6,0.3,0.9,0.3c0.3,0,0.6-0.1,0.9-0.3
      l3.8-2.7h6.5c0.7,0,1.2-0.4,1.4-1l2-6.1l4.3-3.1c0.5-0.4,0.7-1.1,0.5-1.7l-1.7-5.1l1.6-5.1c0.2-0.6,0-1.3-0.5-1.7L34,31.1L32,25
      c-0.2-0.6-0.8-1-1.4-1l-6.5,0l-2.5-1.9c1.6-0.8,2.7-2.4,2.7-4.3c0-1.2-0.5-2.3-1.2-3.2l5.2-2.3c0.5-0.2,0.9-0.8,0.9-1.4V1.5
      c0-0.8-0.7-1.5-1.5-1.5H11.3c-0.8,0-1.5,0.7-1.5,1.5v9.4c0,0.6,0.4,1.1,0.9,1.4l5.2,2.3c-0.8,0.8-1.2,2-1.2,3.2
      c0,1.9,1.1,3.5,2.7,4.3l-2.5,1.8l-6.4,0c0,0,0,0,0,0c-0.6,0-1.2,0.4-1.4,1l-2,6.1l-4.3,3.1c-0.5,0.4-0.7,1.1-0.5,1.7l1.6,5.1
      l-1.6,5C-0.1,46.6,0.1,47.3,0.6,47.7z M17.6,17.8c0-1,0.8-1.8,1.8-1.8s1.8,0.8,1.8,1.8s-0.8,1.8-1.8,1.8S17.6,18.8,17.6,17.8z
       M12.8,3h13.3v6.9l-6.7,2.9l-6.7-2.9V3z M7.1,33.2c0.3-0.2,0.4-0.4,0.5-0.7l1.8-5.6l5.8,0c0,0,0,0,0,0c0.3,0,0.6-0.1,0.9-0.3
      l3.2-2.4l3.3,2.4c0.3,0.2,0.6,0.3,0.9,0.3l5.9,0l1.8,5.6c0.1,0.3,0.3,0.6,0.5,0.8l3.8,2.8l-1.5,4.5c-0.1,0.3-0.1,0.6,0,0.9
      l1.5,4.5l-3.8,2.8c-0.3,0.2-0.5,0.5-0.5,0.8L29.4,55h-5.8c-0.3,0-0.6,0.1-0.9,0.3l-3.3,2.4l-3.2-2.4c-0.3-0.2-0.6-0.3-0.9-0.3H9.4
      l-1.8-5.6c-0.1-0.3-0.3-0.6-0.5-0.7l-3.8-2.8l1.5-4.5c0.1-0.3,0.1-0.6,0-0.9L3.3,36L7.1,33.2z"/>
    <path class="st0" d="M19.4,51c5.5,0,10.1-4.5,10.1-10.1S25,30.9,19.4,30.9S9.4,35.4,9.4,40.9S13.9,51,19.4,51z M19.4,33.9
      c3.9,0,7.1,3.2,7.1,7.1c0,3.9-3.2,7.1-7.1,7.1s-7.1-3.2-7.1-7.1C12.4,37.1,15.5,33.9,19.4,33.9z"/>
  </g>
</g>
</svg>
