<!-- Generator: Adobe Illustrator 22.0.1, SVG Export Plug-In  -->
<svg version="1.1"
   xmlns="http://www.w3.org/2000/svg" xmlns:xlink="http://www.w3.org/1999/xlink" xmlns:a="http://ns.adobe.com/AdobeSVGViewerExtensions/3.0/"
   x="0px" y="0px" width="44.5px" height="61px" viewBox="0 0 44.5 61" style="enable-background:new 0 0 44.5 61;"
   xml:space="preserve">
<style type="text/css">
  .st0{fill:#9F00D0;}
</style>
<defs>
</defs>
<g>
  <g>
    <path class="st0" d="M10.3,31.3c-0.7,0.6-1.3,1.3-1.8,2C6.2,36.4,5,40,5,43.8s1.2,7.4,3.5,10.4c3.3,4.3,8.3,6.8,13.8,6.8
      s10.5-2.5,13.8-6.8c2.3-3,3.5-6.6,3.5-10.4s-1.2-7.4-3.5-10.4c-0.5-0.7-1.2-1.4-1.8-2L44.4,5.8c0.1-0.4,0.1-0.8,0-1.1
      c-0.2-0.4-0.5-0.7-0.8-0.8l-9.3-3.7c0,0-0.1,0-0.1,0c-0.1,0-0.1,0-0.2,0c0,0-0.1,0-0.1,0c0,0-0.1,0-0.1,0H10.8c0,0-0.1,0-0.1,0
      c-0.1,0-0.1,0-0.2,0c-0.1,0-0.1,0-0.2,0c0,0-0.1,0-0.1,0L0.9,3.8C0.6,4,0.3,4.3,0.1,4.6C0,5,0,5.4,0.1,5.8L10.3,31.3z M36.5,43.8
      c0,3.1-1,6.1-2.9,8.6c-2.7,3.6-6.9,5.7-11.4,5.7s-8.6-2.1-11.4-5.7C9,49.9,8,46.9,8,43.8s1-6.1,2.9-8.6c0.6-0.8,1.4-1.6,2.2-2.3
      c2.4-2,5.3-3.2,8.4-3.3c0.2,0,0.5,0,0.7,0c0.3,0,0.5,0,0.8,0c0.4,0,0.8,0.1,1.2,0.1c2.3,0.3,4.4,1.2,6.3,2.5
      c0.3,0.2,0.6,0.5,0.9,0.7c0.8,0.7,1.6,1.5,2.2,2.3C35.5,37.6,36.5,40.6,36.5,43.8z M29.5,8H15l-2-5h18.5L29.5,8z M28.3,11l-6,15.1
      l-6-15.1C16.2,11,28.3,11,28.3,11z M31.7,29.3c-0.1-0.1-0.2-0.1-0.3-0.2c-0.3-0.2-0.6-0.4-1-0.6c-0.1-0.1-0.3-0.2-0.4-0.2
      c-1-0.5-2-0.9-3-1.2c-0.1,0-0.3-0.1-0.4-0.1c-0.4-0.1-0.8-0.2-1.2-0.3c-0.1,0-0.2,0-0.2-0.1l9.3-23.3L41,6L31.7,29.3z M10,3.4
      l9.3,23.3c-0.1,0-0.2,0-0.3,0.1c-0.4,0.1-0.7,0.2-1.1,0.2c-0.2,0-0.3,0.1-0.5,0.1c-0.5,0.1-1,0.3-1.5,0.5c0,0,0,0-0.1,0
      c-0.5,0.2-0.9,0.4-1.4,0.6c-0.2,0.1-0.3,0.2-0.5,0.2c-0.3,0.2-0.6,0.4-1,0.6c-0.1,0.1-0.2,0.1-0.3,0.2L3.5,6L10,3.4z"/>
    <path class="st0" d="M29.5,39.9l-4.1-0.6l-1.8-3.7c-0.3-0.5-0.8-0.8-1.3-0.8s-1.1,0.3-1.3,0.8l-1.8,3.7L15,39.9
      c-0.6,0.1-1,0.5-1.2,1s0,1.1,0.4,1.5l3,2.9l-0.7,4.1c-0.1,0.6,0.1,1.1,0.6,1.5c0.3,0.2,0.6,0.3,0.9,0.3c0.2,0,0.5-0.1,0.7-0.2
      l3.7-1.9l3.7,1.9c0.2,0.1,0.5,0.2,0.7,0.2c0,0,0,0,0,0c0.8,0,1.5-0.7,1.5-1.5c0-0.2,0-0.3-0.1-0.5l-0.7-3.8l3-2.9
      c0.4-0.4,0.6-1,0.4-1.5C30.5,40.4,30.1,40,29.5,39.9z M24.7,43.8c-0.4,0.3-0.5,0.8-0.4,1.3l0.3,1.9l-1.7-0.9
      c-0.2-0.1-0.5-0.2-0.7-0.2c-0.2,0-0.5,0.1-0.7,0.2L19.9,47l0.3-1.9c0.1-0.5-0.1-1-0.4-1.3l-1.4-1.3l1.9-0.3
      c0.5-0.1,0.9-0.4,1.1-0.8l0.8-1.7l0.8,1.7c0.2,0.4,0.6,0.8,1.1,0.8l1.9,0.3L24.7,43.8z"/>
  </g>
</g>
</svg>
