<!-- Generator: Adobe Illustrator 22.0.1, SVG Export Plug-In  -->
<svg version="1.1"
   xmlns="http://www.w3.org/2000/svg" xmlns:xlink="http://www.w3.org/1999/xlink" xmlns:a="http://ns.adobe.com/AdobeSVGViewerExtensions/3.0/"
   x="0px" y="0px" width="47px" height="61px" viewBox="0 0 47 61" style="enable-background:new 0 0 47 61;" xml:space="preserve">
<style type="text/css">
  .st0{fill:#3500A2;}
</style>
<defs>
</defs>
<g>
  <g>
    <path class="st0" d="M45.5,52.9h-4.2v-6.1c0-0.8-0.7-1.5-1.5-1.5h-4.3L40,7.9c0,0,0,0,0,0l0,0c0,0,0,0,0,0c0-0.3,0-0.7-0.3-1
      c0,0,0,0,0,0c0,0,0,0,0,0c-0.1-0.1-0.2-0.2-0.3-0.3c0,0,0,0-0.1,0c-0.1-0.1-0.3-0.1-0.4-0.2c0,0,0,0,0,0L9.3,0C9.2,0,9,0,8.9,0
      c0,0,0,0,0,0C8.7,0,8.5,0.1,8.4,0.1c0,0,0,0-0.1,0C8.2,0.2,8.1,0.3,8,0.4c0,0-0.1,0.1-0.1,0.1c0,0,0,0,0,0c0,0,0,0.1-0.1,0.1
      c0,0-0.1,0.1-0.1,0.1c0,0.1-0.1,0.1-0.1,0.2c0,0,0,0.1,0,0.1C7.5,1.2,7.5,1.4,7.5,1.6c0,0,0,0,0,0L12,45.3H7.7
      c-0.8,0-1.5,0.7-1.5,1.5v6.1H1.5c-0.8,0-1.5,0.7-1.5,1.5v5.1C0,60.3,0.7,61,1.5,61h44c0.8,0,1.5-0.7,1.5-1.5v-5.1
      C47,53.6,46.3,52.9,45.5,52.9z M26.5,15.1l-12.3-11L35,8.5L26.5,15.1z M24.9,17.6l-4.6,27.5H15L10.9,5.2L24.9,17.6z M27.9,17.9
      l8.8-6.8l-4.1,34h-9.3L27.9,17.9z M9.2,48.3h29.1v4.6H9.2V48.3z M44,58H3v-2.1h4.7h32.1H44L44,58L44,58z"/>
  </g>
</g>
</svg>
