<svg id="Capa_1" data-name="Capa 1" xmlns="http://www.w3.org/2000/svg" viewBox="0 0 48 48"><defs><style>.cls-1{fill:#fff;}</style></defs><title>oden-icon</title><path class="cls-1" d="M43.52,15.7h0M10.4,17.43l.49.24c.48.23,1.06.49,1.67.72s1,.34,1.6.53a14,14,0,0,1,1.42.48,1.73,1.73,0,0,0,.64.13h.07a1.58,1.58,0,0,0,.68.16h.12a14.77,14.77,0,0,1,1.12,1.08c.39.41.75.77,1.12,1.11s.64.58,1,.86a1.57,1.57,0,0,0,.67.36,3.64,3.64,0,0,0,1.25,1,1.63,1.63,0,0,0,.75.18,1.59,1.59,0,0,0,.48-.07h.45a3.59,3.59,0,0,0,.47,0h.09a1.67,1.67,0,0,0,1.35-.07,3.55,3.55,0,0,0,1.22-1,1.54,1.54,0,0,0,.65-.33c.31-.26.61-.53.9-.8s.56-.53.83-.81l.29-.29.25-.26.21-.22.05,0a8.38,8.38,0,0,1,.71-.65H31a1.59,1.59,0,0,0,.68-.16h.08a1.66,1.66,0,0,0,.64-.13c.46-.19,1-.34,1.49-.5l.72-.23a19.79,19.79,0,0,0,2-.77l.89-.42a1.41,1.41,0,0,0-.07.58,1.28,1.28,0,0,0,.1.43,1.47,1.47,0,0,0-.35.43,1.52,1.52,0,0,0,0,1.3,2.48,2.48,0,0,1-.41.08l-.22,0-.12,0a1.64,1.64,0,0,0-.38,0,1.46,1.46,0,0,0-1,.34,1.5,1.5,0,0,0-.51,1.5,1.94,1.94,0,0,0,.17.42,4.08,4.08,0,0,1-.42.19,2.34,2.34,0,0,1-.41-.16,1.42,1.42,0,0,0-.74-.2A1.49,1.49,0,0,0,31.68,24a2.23,2.23,0,0,1-.48-.09,1.47,1.47,0,0,0-.54-.1,1.5,1.5,0,0,0-1.35.84v0a1.48,1.48,0,0,0-1.8.33,1.47,1.47,0,0,0-.38.85,1.37,1.37,0,0,0-.39.29,1.56,1.56,0,0,0-.39.78,1.6,1.6,0,0,0-.84.57c-.11.14-.22.29-.32.44l-.07.1-.27.39-.17.26A1.69,1.69,0,0,0,24.42,30a1.64,1.64,0,0,0,0,.22,1.37,1.37,0,0,0-.07.45l0,0h-.11l-.2,0h-.28l0,0a1.32,1.32,0,0,0,0-.44.82.82,0,0,0,0-.27,1.59,1.59,0,0,0,0-.89s0,0,0-.06a2.26,2.26,0,0,0-.17-.35c-.25-.38-.52-.77-.82-1.19a1.67,1.67,0,0,0-.8-.6c0-.05,0-.1,0-.15a1.5,1.5,0,0,0-.77-1,1.53,1.53,0,0,0-.28-.67,1.48,1.48,0,0,0-1.21-.61,1.46,1.46,0,0,0-.78.22l0,0a1.44,1.44,0,0,0-.19-.31,1.53,1.53,0,0,0-1.19-.58,1.48,1.48,0,0,0-.51.09h0a2.83,2.83,0,0,1-.42.06,1.53,1.53,0,0,0-.17-.86,1.53,1.53,0,0,0-2-.64,3.26,3.26,0,0,1-.51.21l-.4-.18a1.57,1.57,0,0,0,.2-.46,1.58,1.58,0,0,0,0-.75,1.49,1.49,0,0,0-.83-1,1.51,1.51,0,0,0-.62-.14,1.62,1.62,0,0,0-.54.1l-.09,0-.15,0-.24,0-.25-.08a1.58,1.58,0,0,0,.1-.75,1.49,1.49,0,0,0-.47-.9,1.41,1.41,0,0,0,.11-.45,1.46,1.46,0,0,0-.1-.66m32,.33h0M32.17,19.22h0m-4.9,3.55h0m.11.07h0M5.75,13.08h0s0,.07-.06.12a.86.86,0,0,0,0,.22,2.63,2.63,0,0,0,.56,1.15A7.34,7.34,0,0,0,7.74,16c-.29-.15-.58-.31-.86-.49l-1.09-.71c-.19-.13-.37-.27-.57-.39l-.1,0h0s-.06,0-.1.07v.06a1.46,1.46,0,0,0,.07.19,2.86,2.86,0,0,0,.56.78,3.45,3.45,0,0,0,1,.72,9.54,9.54,0,0,0,1.55.64h.05l-.05,0h0a11.14,11.14,0,0,1-1.52-.34,6.27,6.27,0,0,0-.75-.17H5.8c-.1,0-.14.12-.09.24a.65.65,0,0,0,.17.27,2.62,2.62,0,0,0,1,.61A10.55,10.55,0,0,0,9,18H8.49c-.37,0-.74.05-1.12.06l-.45,0H6.8l-.12,0a.22.22,0,0,0-.14.28.88.88,0,0,0,.12.26,2.17,2.17,0,0,0,.59.58,2.68,2.68,0,0,0,1.54.47h.54c-.18.05-.35.14-.53.19a.22.22,0,0,0-.16.33,2.2,2.2,0,0,0,.63.88,3.23,3.23,0,0,0,1.4.69,3,3,0,0,0,.58.07,3,3,0,0,0,.43,0l.33-.09h0c-.34.26-.67.53-1,.76a.16.16,0,0,0-.05.24,1.09,1.09,0,0,0,.31.33,7.88,7.88,0,0,0,1.82,1.06,1.46,1.46,0,0,0,.57.12,1.43,1.43,0,0,0,.29,0l.13,0a4.49,4.49,0,0,0,.77-.29l-.2.14a5.3,5.3,0,0,1-.52.42.1.1,0,0,0,0,0s0,.09,0,.16a.73.73,0,0,0,.21.22,3.35,3.35,0,0,0,1.95.67h.16a3.79,3.79,0,0,0,.82-.13l.06,0h0a7.77,7.77,0,0,1-1,.6l-.08.06c-.07.06-.06.14,0,.25a1.18,1.18,0,0,0,1.09.61h0a2.59,2.59,0,0,0,.86-.18,7,7,0,0,0,1.36-.7h0l-.35.3c-.46.42-.95.82-1.45,1.2-.08.06-.16.11-.24.18a.17.17,0,0,0-.08.12.19.19,0,0,0,.07.13l.05.05a1.23,1.23,0,0,0,.71.23l.26,0a3.33,3.33,0,0,0,1.13-.52,2.19,2.19,0,0,0,.5-.41.5.5,0,0,1,.17-.15.06.06,0,0,1,0,.06c-.28.28-.55.57-.84.83l-.34.31a.28.28,0,0,0-.05.12.14.14,0,0,0,.06.11.25.25,0,0,0,.13.05,1,1,0,0,0,.24,0,1.14,1.14,0,0,0,.41-.07,2.34,2.34,0,0,0,.51-.23l.07,0h0a0,0,0,0,0,0,0,.09.09,0,0,1,0,.07,1.34,1.34,0,0,0,0,.2.64.64,0,0,0,0,.07.13.13,0,0,0,.14.09h.08a.5.5,0,0,0,.5-.29c0-.05,0-.08.07-.08s0,0,.08.07c.26.36.52.73.77,1.12,0,0,0,0,0,0a.16.16,0,0,1,0,.13l-.16.27c-.05.07-.06.12,0,.16s.06.07.14.08l.06,0a.07.07,0,0,1,0,.06l0,.07c0,.07,0,.1,0,.14l.07.08a.08.08,0,0,1,0,0,.12.12,0,0,1,0,.13c-.05.09-.09.19-.14.28s-.26.35-.36.5a1.65,1.65,0,0,0-.28.83,1.73,1.73,0,0,1,.28.42c.14.28.28.28.28.28a3.55,3.55,0,0,0,.7-1l.06-.21.09,0h0l-.18.41a11.4,11.4,0,0,1-1,1.6.18.18,0,0,0,0,.22c.1.13.25.34.34.43a1.41,1.41,0,0,0,.33.23.15.15,0,0,0,.18,0h0v0a2.77,2.77,0,0,0,.69-.74,3.75,3.75,0,0,0,.59-1.53v0s0,0,0-.06a.68.68,0,0,1,.07-.2h0a1.38,1.38,0,0,0,.2,0,.13.13,0,0,0,.08,0l0,0h.1a1.85,1.85,0,0,0,0,.29A3.83,3.83,0,0,0,24.86,34a2.6,2.6,0,0,0,.64.75.76.76,0,0,0,.19.12h0a.16.16,0,0,0,.11-.05s0,0,0,0h-.06a1.6,1.6,0,0,0,.3-.23l0,0v0s0,0,0,0h0a1.56,1.56,0,0,0,.22-.4l0-.05a.2.2,0,0,0,0-.22l0,0h0l-.05-.06a12.77,12.77,0,0,1-.8-1.37l-.06-.15a2.11,2.11,0,0,1-.17-.38v0l.11-.08.09.27a3.38,3.38,0,0,0,.69,1,.2.2,0,0,0,.1,0h0c.07,0,.12-.05.15-.14a.49.49,0,0,0,0-.11,1.61,1.61,0,0,1,.27-.41,1.65,1.65,0,0,0-.28-.83c-.14-.21-.35-.5-.53-.72a0,0,0,0,0,0,0c0-.05-.05-.11,0-.15s.11-.12.09-.2a.36.36,0,0,0,0-.09s0,0,0-.06,0,0,.08-.06.15-.08.12-.17,0,0,0,0-.12-.19-.17-.28,0,0,0-.06a.17.17,0,0,1,0-.16c.14-.21.27-.43.41-.63s.23-.32.35-.47,0-.06.06-.06,0,0,.06.06l0,0a.47.47,0,0,0,.46.27h.12a.13.13,0,0,0,.13-.14.74.74,0,0,0,0-.21s0-.07,0-.1h0a.15.15,0,0,1,.07,0l.07,0a2.17,2.17,0,0,0,.7.25h.16a.84.84,0,0,0,.27,0c.12,0,.17-.11.14-.19a.27.27,0,0,0-.06-.1.94.94,0,0,1-.1-.1,9.44,9.44,0,0,1-1-1l.63.47a2.84,2.84,0,0,0,1.14.53,1,1,0,0,0,.24,0A1.19,1.19,0,0,0,30.5,28c.1-.07.14-.12.14-.18s-.05-.11-.13-.18c-.28-.21-.56-.42-.83-.64a10.89,10.89,0,0,1-1.07-1l.05,0a4.93,4.93,0,0,0,1.25.64,2.54,2.54,0,0,0,.86.18h.16a1.12,1.12,0,0,0,.93-.6.19.19,0,0,0,0-.18s-.06-.09-.13-.13c-.38-.2-.74-.42-1.11-.63l.06,0a3.63,3.63,0,0,0,1,.16l.35,0a3.34,3.34,0,0,0,1.64-.67.52.52,0,0,0,.19-.2.13.13,0,0,0,0-.17.15.15,0,0,0-.06,0l-.29-.22c-.15-.11-.27-.24-.41-.35a3.21,3.21,0,0,0,.89.34,1.45,1.45,0,0,0,.29,0,1.24,1.24,0,0,0,.41-.08,7.54,7.54,0,0,0,1.92-1.07,1.2,1.2,0,0,0,.35-.36.16.16,0,0,0,0-.18.28.28,0,0,0-.09-.1,8.86,8.86,0,0,1-.93-.68h0l.06,0,.16,0a2.63,2.63,0,0,0,.49.05H37a3.44,3.44,0,0,0,1.51-.54,2.48,2.48,0,0,0,.89-1.06.29.29,0,0,0,0-.24.25.25,0,0,0-.19-.13c-.19-.05-.36-.12-.54-.16l-.1,0a4,4,0,0,0,.68.07h.27a2.77,2.77,0,0,0,1.5-.64,1.49,1.49,0,0,0,.46-.62.25.25,0,0,0,0-.23.29.29,0,0,0-.2-.12c-.21,0-.41,0-.61,0s-.41,0-.62,0l-.39,0c-.2,0-.4,0-.6,0h-.09a9,9,0,0,0,2-.47,3.29,3.29,0,0,0,1-.49,1,1,0,0,0,.36-.44c0-.07.06-.14,0-.21l0,0a.17.17,0,0,0-.12,0h-.06c-.24.05-.48.1-.72.17a12.58,12.58,0,0,1-1.59.36c.24-.08.49-.15.73-.25l.55-.24a4.3,4.3,0,0,0,1.25-.8,2.78,2.78,0,0,0,.72-1v0a.19.19,0,0,0-.09-.09h-.12l-.11.07c-.41.3-.83.58-1.27.84a9.77,9.77,0,0,1-1,.63h0c.21-.16.41-.33.61-.5a4.66,4.66,0,0,0,1.12-1.3,1.84,1.84,0,0,0,.26-.85.14.14,0,0,0-.07-.16h0a.2.2,0,0,0-.13.08c-.25.28-.51.56-.78.83s-.44.46-.68.68a2.85,2.85,0,0,1-.57.48l.07-.08A4,4,0,0,0,40.86,14a.8.8,0,0,0,0-.21.18.18,0,0,0-.07-.15h-.06l-.09,0-.13.1c-.23.21-.47.41-.72.61a14.8,14.8,0,0,1-2.44,1.55c-.46.24-.92.46-1.39.67a15.78,15.78,0,0,1-1.83.72c-.78.25-1.58.45-2.34.77h-.07a.09.09,0,0,1,0-.06s0,0,0-.06a.17.17,0,0,0-.06-.09h0a.11.11,0,0,0-.07,0,1.86,1.86,0,0,0-.44.29s0,.06-.08.06h0s0-.07,0-.1S31,18,31,18h-.1l-.05,0a2.19,2.19,0,0,0-.6.33,12.47,12.47,0,0,0-1.09,1c-.17.16-.32.34-.48.5-.36.35-.7.72-1.07,1.05s-.57.51-.86.76a.09.09,0,0,1-.07,0h0l-.06,0a.13.13,0,0,0-.08,0,.09.09,0,0,1-.07,0h-.07a.2.2,0,0,0-.12.06A1.09,1.09,0,0,0,26,22a2,2,0,0,1-.86.76l-.07,0-.06,0a.16.16,0,0,0-.14-.06h-.22c-.1,0-.19-.05-.28-.05h-.08a1.18,1.18,0,0,1-.37.05h-.57a.71.71,0,0,0-.29,0,.1.1,0,0,1-.07,0,.12.12,0,0,1-.08,0,1.88,1.88,0,0,1-.83-.72,1.81,1.81,0,0,0-.25-.3c-.11-.1-.25,0-.37-.11h0l-.05,0a.14.14,0,0,1-.1-.05c-.31-.27-.62-.53-.92-.81s-.71-.69-1.05-1.05A16.33,16.33,0,0,0,18,18.45a3,3,0,0,0-.76-.45l-.1,0C17,18,17,18,17,18.1s0,.07,0,.08h0s0,0-.07-.05a2.42,2.42,0,0,0-.42-.29l-.09,0a.05.05,0,0,0,0,0s0,0-.05.08l0,.05a.14.14,0,0,1,0,.07h0a.11.11,0,0,1-.07,0c-.51-.21-1-.37-1.56-.53s-1-.31-1.51-.5-1-.43-1.55-.67c-.66-.31-1.3-.65-1.93-1a14.05,14.05,0,0,1-2-1.45,2,2,0,0,0-.28-.23.17.17,0,0,0-.11,0H7.16a.16.16,0,0,0-.06.17.5.5,0,0,0,0,.12,3.36,3.36,0,0,0,.26.54,3.6,3.6,0,0,0,.67.87,5,5,0,0,1-.65-.57c-.3-.27-.58-.56-.85-.85l-.65-.69a.2.2,0,0,0-.15-.09Z"/></svg>