<!-- Generator: Adobe Illustrator 22.0.1, SVG Export Plug-In  -->
<svg version="1.1"
 xmlns="http://www.w3.org/2000/svg" xmlns:xlink="http://www.w3.org/1999/xlink" xmlns:a="http://ns.adobe.com/AdobeSVGViewerExtensions/3.0/"
 x="0px" y="0px" width="125px" height="124.9px" viewBox="0 0 125 124.9" style="enable-background:new 0 0 125 124.9;"
 xml:space="preserve">
<style type="text/css">
.st0{fill:#FFFFFF;}
</style>
<defs>
</defs>
<g>
<g>
<g>
<path class="st0" d="M74.6,59.2l-7.2,10.6c-1.1,1.6-1.5,3.7-1.5,5.1v1.8c0,1.2-1,2.2-2.2,2.2h0c-1.2,0-2.2-1-2.2-2.2v-1.7
c0-3.3,0.8-5.2,2.5-7.7l7.2-10.6c1.7-2.6,2.9-4.5,2.9-7.8c0-6.4-4.7-11.2-10.9-11.2c-6,0-10,4.2-10.8,9.4c-0.2,1-1.1,1.8-2.1,1.8
h0c-1.3,0-2.4-1.2-2.1-2.5c1.1-7,6.9-12.5,15-12.5c8.7,0,15.2,6.5,15.2,15C78.3,53.1,76.9,55.9,74.6,59.2z M63,83.6h1.4
c1.2,0,2.2,1,2.2,2.2v1.4c0,1.2-1,2.2-2.2,2.2H63c-1.2,0-2.2-1-2.2-2.2v-1.4C60.8,84.6,61.8,83.6,63,83.6z"/>
</g>
</g>
</g>
<path class="st0" d="M62.5,124.9c-13.4,0-26.8-4.3-38-12.9l-9.9,3.2c-1.5,0.5-3.1,0.1-4.2-1c-1.1-1.1-1.5-2.7-1-4.2l3.3-9.9
C3.1,87.4-1.3,71.8,0.3,55.8c1.7-16.5,9.8-31.4,22.8-42C46.2-5,80.6-4.5,103.2,14.9l0,0C116.6,26.5,124.3,42.5,125,60
c0.6,17.3-6,34.3-18.3,46.5C94.5,118.7,78.5,124.9,62.5,124.9z M25.2,107.8l0.8,0.6c23.4,18.6,57,16.6,78.1-4.5
c11.5-11.5,17.8-27.5,17.2-43.8c-0.6-16.5-7.9-31.6-20.5-42.4C79.5-0.6,47.2-1,25.5,16.7C13.3,26.6,5.6,40.7,4,56.2
C2.4,71.5,6.8,86.6,16.2,98.6l0.6,0.8L13,111.2c0,0.1,0,0.3,0.1,0.4c0.1,0.1,0.2,0.1,0.4,0.1L25.2,107.8z"/>
</svg>