<!-- Generator: Adobe Illustrator 22.0.1, SVG Export Plug-In  -->
<svg version="1.1"
	 xmlns="http://www.w3.org/2000/svg" xmlns:xlink="http://www.w3.org/1999/xlink" xmlns:a="http://ns.adobe.com/AdobeSVGViewerExtensions/3.0/"
	 x="0px" y="0px" width="34px" height="34px" viewBox="0 0 34 34" style="enable-background:new 0 0 34 34;" xml:space="preserve">
<style type="text/css">
	.st0{fill:none;stroke:#FFFFFF;stroke-width:2;stroke-miterlimit:10;}
	.st1{fill:none;}
</style>
<defs>
</defs>
<path class="st0" d="M23.6,27.9H10.4c-2.4,0-4.3-1.9-4.3-4.3V10.4C6.1,8,8,6.1,10.4,6.1h13.2c2.4,0,4.3,1.9,4.3,4.3v13.2
	C27.9,26,26,27.9,23.6,27.9z"/>
<line class="st0" x1="6.1" y1="19.6" x2="27.9" y2="19.6"/>
<path class="st0" d="M12.4,19.6l5.2-5.2c0.5-0.5,1.3-0.5,1.8,0v0c0.5,0.5,1.3,0.5,1.8,0l6.1-6.1"/>
<path class="st0" d="M6.1,10.4v3.5c0.2,0,0.4,0.1,0.6,0.1c3.7,0.3,7-2.4,7.3-6.1c0.1-0.6,0-1.2-0.1-1.8h-3.5C8,6.1,6.1,8,6.1,10.4z"
	/>
<rect class="st1" width="34" height="34"/>
</svg>
