<!-- Generator: Adobe Illustrator 22.0.1, SVG Export Plug-In  -->
<svg version="1.1"
   xmlns="http://www.w3.org/2000/svg" xmlns:xlink="http://www.w3.org/1999/xlink" xmlns:a="http://ns.adobe.com/AdobeSVGViewerExtensions/3.0/"
   x="0px" y="0px" width="1286px" height="931.5px" viewBox="0 0 1286 931.5" style="enable-background:new 0 0 1286 931.5;"
   xml:space="preserve">
<style type="text/css">
  .st0{fill:#D7263D;}
</style>
<defs>
</defs>
<g>
  <path class="st0" d="M1184.5,219.2C1107.4,149,995.2,88,868.6,47.6S615.2-8.3,511.7,4.2C400.2,17.7,326.9,62.4,305.3,130.1l0,0
    l-29.1,91.1c-13.3,41.7-5.6,87.7,21.7,134.5c-76.3,16-142.4,40.7-193,72.5c-31.6,19.9-56.4,42.1-73.9,66.1
    c-19.4,26.6-29.4,55-29.8,84.4L0,674.4c-1,71,54.3,136.7,155.7,184.8C250,904,375,929.6,508,931.4c5,0.1,10,0.1,15,0.1
    c127.3,0,247.2-22.1,339-62.6c102.7-45.4,159.7-109.5,160.7-180.5l0.4-27.8c7.1-0.6,14.1-1.3,21.1-2.1
    c111.4-13.5,184.7-58.2,206.3-125.9l29.1-91.1C1301.2,373.7,1267.4,294.8,1184.5,219.2z M518.6,61.9c22.3-2.6,44.7-3.9,67.2-3.9
    c81.1,0,172.8,15.4,265.1,44.8c118.8,38,223.4,94.5,294.4,159.3c64.2,58.5,93,117.4,78.9,161.5c-14.1,44.1-71.7,75.4-157.9,85.8
    c-16.4,2-33.6,3.2-51.2,3.7c-3.3-0.5-6.7-0.5-10,0.2c-82.5,0.8-176.5-14.6-270.9-44.8c-118.8-37.9-223.4-94.5-294.4-159.2
    c-7.6-6.9-14.7-13.8-21.3-20.7l-0.2-0.3c-49-51.4-69.8-101.7-57.4-140.5C374.8,103.7,432.4,72.4,518.6,61.9z M364.4,315.8
    l-7.8,24.2c-17.6-25.9-27.4-50.8-28.5-73.3C337.9,283,350,299.4,364.4,315.8z M410.8,361.5c21.1,18.2,43.4,35,66.7,50.4l-10.7,33.4
    c-19.7-13.7-38.6-28.7-56.4-44.8c-3.2-2.9-6.3-5.8-9.3-8.7L410.8,361.5z M528.6,443.1c33.7,18.9,68.5,35.7,104.2,50.4L621.5,529
    c-35.7-14.8-70.4-32-103.9-51.4L528.6,443.1z M687.2,514.2c9.6,3.4,19.3,6.6,29.1,9.8c29.7,9.5,59.3,17.6,88.7,24.3l-11.4,35.6
    c-29.3-6.5-59-14.6-88.7-24.1c-9.8-3.1-19.5-6.4-29.1-9.8L687.2,514.2z M862.4,559.6c35.8,6.1,72,9.9,108.3,11.4L960,604.5
    c-34.7-0.5-71.2-3.8-108.8-9.7L862.4,559.6z M939.7,730.1c3.6-2.6,7.1-5.3,10.6-8c3-2.4,5.9-4.8,8.7-7.2
    c-4.2,10.7-10.8,21.4-19.5,31.8L939.7,730.1z M335.9,407.6c11.1,12.6,23,24.5,35.4,35.8c77.1,70.2,189.3,131.2,315.9,171.7
    c83.4,26.7,166.9,42.4,243.8,46.5c-5.4,5.3-11,10.3-17,15c-25.4,20.2-58.7,38.2-98.7,53.5c-7.8,3-15.7,5.8-23.9,8.5
    c-3.1,0.5-6.1,1.4-9,2.9c-79,24.8-174.3,37.6-272.6,36.2c-124.7-1.7-241.2-25.3-328.1-66.5c-9.3-4.4-18-9-26.4-13.6l-0.3-0.2
    c-61.8-34.9-96.4-76.9-95.8-117.7l0,0l0,0C60.4,505.9,173.3,436.2,335.9,407.6z M685.6,823.4c28.1-4.5,55-10.1,80.6-16.8l-0.5,35.2
    c-33.3,9.6-69.3,17.1-106.9,22.4l0.5-37C668.2,826.1,676.9,824.8,685.6,823.4z M420.4,830.9l-0.5,37.3
    c-38.5-3.8-76.7-10.1-114.4-18.9l0.5-36.3C343.8,821.3,382,827.3,420.4,830.9L420.4,830.9z M63,702.7c14,12.8,30.4,25,49,36.5
    l-0.3,25.4C87.2,744.9,70.6,723.9,63,702.7L63,702.7z M169.2,801.1l0.4-31.7c25.5,11.2,51.7,20.8,78.5,28.7l-0.5,35.1
    c-22.9-7.4-45.3-16.2-67-26.5C176.8,804.9,172.9,803,169.2,801.1L169.2,801.1z M508.7,873.3c-10.3-0.1-20.5-0.4-30.7-0.9l0.5-37.5
    c10.2,0.4,20.4,0.7,30.7,0.8c5,0.1,10,0.1,15,0.1c25.9,0,51.5-0.9,76.9-2.8l-0.5,37.3C570.7,872.7,540,873.7,508.7,873.3
    L508.7,873.3z M838.5,815.7c-4.7,2.1-9.4,4.1-14.3,6l0.5-33.2c3.9-1.4,7.7-2.8,11.4-4.2c15.9-6.1,30.9-12.5,45-19.4l-0.4,29.2
    C867.1,802.1,853,809.3,838.5,815.7z M1037.1,600.7c-4.4,0.5-8.8,1-13.3,1.4l0.1-6.7l7.9-24.6c14.2-0.7,28-1.8,41.4-3.5
    c6.6-0.8,13.1-1.7,19.5-2.7l-8.9,27.8C1068.4,596,1052.9,598.8,1037.1,600.7L1037.1,600.7z M1153.9,564l5-15.7
    c8-2.8,15.6-5.7,22.9-8.9C1174.6,548.4,1165.3,556.7,1153.9,564L1153.9,564z"/>
</g>
</svg>
