<!-- Generator: Adobe Illustrator 22.0.1, SVG Export Plug-In  -->
<svg version="1.1"
   xmlns="http://www.w3.org/2000/svg" xmlns:xlink="http://www.w3.org/1999/xlink" xmlns:a="http://ns.adobe.com/AdobeSVGViewerExtensions/3.0/"
   x="0px" y="0px" width="300px" height="300px" viewBox="0 0 300 300" style="enable-background:new 0 0 300 300;"
   xml:space="preserve">
<style type="text/css">
  .st0{fill:none;}
  .st1{fill:#FFFFFF;}
</style>
<defs>
</defs>
<rect class="st0" width="300" height="300"/>
<g transform="translate(0,-952.36218)">
  <path class="st1" d="M101.8,1012.4c-10.6,0-19.3,8.6-19.3,19.2v141.5c0,10.6,8.7,19.3,19.3,19.3h111.6c2.3,0,4.1-1.8,4.1-4.1
    v-141.5c0-2.3-1.8-4.1-4.1-4.1H101.8c-5.7,0-10.2-4.1-11-9.5c0-0.2-0.1-0.4-0.1-0.6v-1c0-6.2,4.9-11.1,11.1-11.1h92.3v12.8
    c0,2.3,1.8,4.1,4,4.1c2.3,0,4.1-1.8,4.1-4c0,0,0-0.1,0-0.1v-16.9c0-2.3-1.8-4.1-4.1-4.1H101.8z M90.7,1047
    c3.2,2.3,6.9,3.8,11.1,3.8h11.1v133.4h-11.1c-6.2,0-11.1-4.9-11.1-11.1V1047z M121.1,1050.8h88.2v133.4h-88.2V1050.8z
     M136.9,1136.2c-2.3,0.1-4,2.1-3.9,4.3c0.1,2.3,2.1,4,4.3,3.9c0,0,0,0,0,0h55.8c2.3,0,4.1-1.8,4.1-4c0-2.3-1.8-4.1-4-4.1
    c0,0-0.1,0-0.1,0h-55.8C137.2,1136.2,137,1136.2,136.9,1136.2z M157.2,1151.3c-2.3,0.1-4,2-3.9,4.3c0.1,2.3,2,4,4.3,3.9h35.5
    c2.3,0,4.1-1.8,4.1-4c0-2.3-1.8-4.1-4-4.1c0,0-0.1,0-0.1,0h-35.5C157.5,1151.3,157.4,1151.3,157.2,1151.3z"/>
</g>
</svg>
