<!-- Generator: Adobe Illustrator 22.0.1, SVG Export Plug-In  -->
<svg version="1.1"
   xmlns="http://www.w3.org/2000/svg" xmlns:xlink="http://www.w3.org/1999/xlink" xmlns:a="http://ns.adobe.com/AdobeSVGViewerExtensions/3.0/"
   x="0px" y="0px" width="46px" height="44.2px" viewBox="0 0 46 44.2" style="enable-background:new 0 0 46 44.2;"
   xml:space="preserve">
<style type="text/css">
  .st0{fill:#707070;}
</style>
<defs>
</defs>
<g>
  <g transform="translate(-7.000000, -7.000000)">
    <g transform="translate(7.000000, 7.000000)">
      <g transform="translate(0.000000, 1.533333)">
        <path class="st0" d="M30.2-1.5c3.1,1,5.9,2.7,8.3,4.8l-0.7,6.3c-0.2,1.4,0.8,3.1,2.1,3.6l5.8,2.6c0.3,1.5,0.3,8,0,9.5l-5.8,2.6
          c-1.3,0.6-2.3,2.2-2.1,3.6l0.7,6.3c-2.4,2.1-5.2,3.8-8.3,4.8l-5.2-3.8c-0.6-0.4-1.3-0.6-2.1-0.6c-0.8,0-1.5,0.2-2.1,0.6
          l-5.2,3.8c-3.1-1-5.9-2.7-8.3-4.8l0.7-6.3c0.2-1.4-0.8-3.1-2.1-3.6l-5.8-2.6c-0.3-1.5-0.3-8,0-9.5l5.8-2.6
          c1.3-0.6,2.3-2.2,2.1-3.6L7.5,3.2c2.4-2.1,5.2-3.8,8.3-4.8l5.2,3.8c0.6,0.4,1.3,0.6,2.1,0.6c0.8,0,1.5-0.2,2.1-0.6L30.2-1.5z
           M15.3,1.9c-1.6,0.7-3.2,1.6-4.6,2.6l0.5,4.7c0.3,2.7-1.4,5.7-3.9,6.8l-4.2,1.9c-0.1,1.5-0.1,3.8,0,5.4l4.2,1.9
          c2.5,1.1,4.2,4,3.9,6.8l-0.5,4.7c1.4,1.1,2.9,2,4.6,2.6l3.8-2.8c1.1-0.8,2.5-1.2,3.9-1.2c1.4,0,2.8,0.4,3.9,1.2l3.8,2.8
          c1.6-0.7,3.2-1.6,4.6-2.6l-0.5-4.7c-0.3-2.7,1.4-5.7,3.9-6.8l4.2-1.9c0.1-1.5,0.1-3.8,0-5.4L38.7,16c-2.5-1.1-4.2-4-3.9-6.8
          l0.5-4.7c-1.4-1.1-2.9-2-4.6-2.6l-3.8,2.8c-1.1,0.8-2.5,1.2-3.9,1.2c-1.4,0-2.8-0.4-3.9-1.2L15.3,1.9z M23,14.8
          c-3.3,0-5.9,2.6-5.9,5.9s2.6,5.9,5.9,5.9s5.9-2.6,5.9-5.9S26.3,14.8,23,14.8z M23,29.7c-4.9,0-9-4-9-9c0-4.9,4-9,9-9s9,4,9,9
          C32,25.7,27.9,29.7,23,29.7z"/>
      </g>
    </g>
  </g>
</g>
</svg>
