<!-- Generator: Adobe Illustrator 22.0.1, SVG Export Plug-In  -->
<svg version="1.1"
   xmlns="http://www.w3.org/2000/svg" xmlns:xlink="http://www.w3.org/1999/xlink" xmlns:a="http://ns.adobe.com/AdobeSVGViewerExtensions/3.0/"
   x="0px" y="0px" width="300px" height="300px" viewBox="0 0 300 300" style="enable-background:new 0 0 300 300;"
   xml:space="preserve">
<style type="text/css">
  .st0{fill:#FFFFFF;}
  .st1{fill:none;}
</style>
<defs>
</defs>
<g>
  <path class="st0" d="M144.1,172.6h25.3c3,0,5.5-2.5,5.5-5.5s-2.5-5.5-5.5-5.5h-19.9v-32c0-3-2.5-5.5-5.5-5.5s-5.5,2.5-5.5,5.5v37.6
    C138.5,170.2,141,172.6,144.1,172.6z"/>
  <path class="st0" d="M221.6,71.2c-2.2-2.2-5.7-2.2-7.8,0c-2.2,2.2-2.2,5.7,0,7.8l19,19c1.1,1.1,2.5,1.6,3.9,1.6s2.8-0.6,3.9-1.6
    c2.2-2.2,2.2-5.7,0-7.8L221.6,71.2z"/>
  <path class="st0" d="M144.1,251c47.6,0,86.3-38.7,86.3-86.3c0-45.9-36-83.6-81.3-86.2V60h9.7c3,0,5.5-2.5,5.5-5.5
    c0-3-2.5-5.5-5.5-5.5h-29.3c-3,0-5.5,2.5-5.5,5.5c0,3,2.5,5.5,5.5,5.5h8.7v18.6c-44.8,3.1-80.3,40.6-80.3,86.1
    C57.8,212.3,96.5,251,144.1,251z M144.1,89.5c41.5,0,75.3,33.8,75.3,75.3S185.6,240,144.1,240s-75.3-33.8-75.3-75.3
    S102.6,89.5,144.1,89.5z"/>
</g>
<rect class="st1" width="300" height="300"/>
</svg>
