<svg id="Capa_1" data-name="Capa 1" xmlns="http://www.w3.org/2000/svg" viewBox="0 0 48 48"><defs><style>.cls-1{fill:none;stroke:#fff;stroke-miterlimit:10;stroke-width:1.5px;}</style></defs><title>ejercicios</title><line class="cls-1" x1="8" y1="17.88" x2="40" y2="17.88"/><rect class="cls-1" x="34.75" y="13.38" width="2.5" height="9" rx="1" ry="1"/><rect class="cls-1" x="10.75" y="13.38" width="2.5" height="9" rx="1" ry="1"/><path class="cls-1" d="M40,30.07H32.19a1,1,0,0,0-.37.08l-3.45,1.38a1,1,0,0,1-.74,0l-3.27-1.31a1,1,0,0,0-.74,0l-3.25,1.31a1.08,1.08,0,0,1-.75,0l-3.44-1.38a1,1,0,0,0-.37-.08H8"/><rect class="cls-1" x="34.75" y="25.63" width="2.5" height="9" rx="1" ry="1"/><rect class="cls-1" x="10.75" y="25.63" width="2.5" height="9" rx="1" ry="1"/></svg>