<svg id="Capa_1" data-name="Capa 1" xmlns="http://www.w3.org/2000/svg" viewBox="0 0 48 48"><defs><style>.cls-1{fill:none;stroke:#fff;stroke-linecap:round;stroke-linejoin:round;stroke-width:1.5px;}</style></defs><title>ranking</title><circle class="cls-1" cx="24" cy="21.31" r="8"/><polygon class="cls-1" points="36.03 25.11 33.11 27.81 31.5 31.45 27.55 31.92 24.11 33.93 20.63 31.98 16.67 31.58 15.01 27.96 12.04 25.31 12.81 21.4 11.97 17.51 14.89 14.81 16.5 11.17 20.45 10.7 23.89 8.69 27.37 10.64 31.33 11.04 32.99 14.66 35.96 17.31 35.19 21.21 36.03 25.11"/><polyline class="cls-1" points="29 32.31 29 39.31 24 37.31 19 39.31 19 32.31"/><polyline class="cls-1" points="24.5 24.31 24.5 18.31 22.5 19.81"/></svg>