<svg id="Capa_1" data-name="Capa 1" xmlns="http://www.w3.org/2000/svg" viewBox="0 0 48 48"><defs><style>.cls-1{fill:none;stroke:#fff;stroke-miterlimit:10;stroke-width:1.5px;}</style></defs><title>tienda</title><path class="cls-1" d="M34.37,22.88H13.63a1.24,1.24,0,0,1-1.11-1.78l3.63-7.41A1.25,1.25,0,0,1,17.26,13H30.74a1.25,1.25,0,0,1,1.11.69l3.63,7.41A1.24,1.24,0,0,1,34.37,22.88Z"/><rect class="cls-1" x="14.74" y="22.88" width="18.53" height="11.12" rx="1" ry="1"/><path class="cls-1" d="M18.82,26.59h2.94a1,1,0,0,1,1,1V34a0,0,0,0,1,0,0H17.82a0,0,0,0,1,0,0V27.59A1,1,0,0,1,18.82,26.59Z"/></svg>